<svg width="59" height="58" viewBox="0 0 59 58" fill="none" xmlns="http://www.w3.org/2000/svg">
<path d="M54.1273 44.9032H32.5176C32.4141 44.486 32.2163 44.0982 31.9395 43.7694L26.7728 37.7467C26.6851 37.6442 26.5762 37.5618 26.4536 37.5053C26.3311 37.4488 26.1977 37.4194 26.0628 37.4193H15.7724V36.4838C15.7724 36.2357 15.6739 35.9978 15.4984 35.8223C15.323 35.6469 15.0851 35.5483 14.8369 35.5483H1.74017C1.49207 35.5483 1.25412 35.6469 1.07868 35.8223C0.903247 35.9978 0.804688 36.2357 0.804688 36.4838V57.0645C0.804688 57.3126 0.903247 57.5505 1.07868 57.726C1.25412 57.9014 1.49207 58 1.74017 58H9.22404C9.47215 58 9.71009 57.9014 9.88553 57.726C10.061 57.5505 10.1595 57.3126 10.1595 57.0645V56.129H14.8369C15.0851 56.129 15.323 56.0304 15.4984 55.855C15.6739 55.6796 15.7724 55.4416 15.7724 55.1935V54.258H22.0402L27.4173 57.8428C27.5703 57.9448 27.7499 57.9994 27.9337 58C28.001 57.9997 28.0681 57.9925 28.1339 57.9784L58.0694 51.4301C58.2778 51.3844 58.4644 51.2689 58.5981 51.1026C58.7318 50.9364 58.8047 50.7294 58.8047 50.5161V49.5806C58.8032 48.3405 58.3099 47.1517 57.4331 46.2748C56.5562 45.3979 55.3673 44.9047 54.1273 44.9032ZM8.28856 56.129H2.67566V37.4193H8.28856V56.129ZM13.9015 54.258H10.1595V37.4193H13.9015V54.258ZM56.9337 49.7677L28.1208 56.0663L22.8391 52.5442C22.6855 52.4422 22.5052 52.3875 22.3208 52.387H15.7724V39.2903H25.6324L30.5147 44.9864C30.6602 45.156 30.7402 45.372 30.7402 45.5954V46.7741C30.7402 47.0223 30.6416 47.2602 30.4662 47.4356C30.2907 47.6111 30.0528 47.7096 29.8047 47.7096H28.7092C28.5862 47.7097 28.4644 47.6856 28.3508 47.6385C28.2371 47.5915 28.1339 47.5225 28.0469 47.4355L23.9177 43.3063L22.5949 44.6291L26.7241 48.7583C26.9841 49.02 27.2935 49.2274 27.6342 49.3685C27.975 49.5097 28.3404 49.5818 28.7092 49.5806H29.8047C30.549 49.5806 31.2628 49.2849 31.7891 48.7586C32.3155 48.2323 32.6111 47.5185 32.6111 46.7741H54.1273C54.8716 46.7741 55.5854 47.0698 56.1117 47.5961C56.638 48.1224 56.9337 48.8363 56.9337 49.5806V49.7677Z" fill="white"/>
<path d="M57.8692 28.0645H55.9982V7.48387C55.9982 6.73955 55.7026 6.02572 55.1762 5.49941C54.6499 4.9731 53.9361 4.67742 53.1918 4.67742H46.5929C46.5794 4.65451 46.5647 4.63234 46.5489 4.611L43.9034 1.96452C43.7279 1.78914 43.49 1.69062 43.242 1.69062C42.9939 1.69062 42.756 1.78914 42.5806 1.96452L41.6096 2.93555C41.1242 2.68181 40.6174 2.47145 40.095 2.3069V0.935484C40.095 0.687378 39.9965 0.449434 39.821 0.273997C39.6456 0.0985596 39.4076 0 39.1595 0H35.4176C35.1695 0 34.9315 0.0985596 34.7561 0.273997C34.5807 0.449434 34.4821 0.687378 34.4821 0.935484V2.3069C33.9597 2.47145 33.4529 2.68181 32.9676 2.93555L31.9965 1.96452C31.8211 1.78914 31.5832 1.69062 31.3351 1.69062C31.0871 1.69062 30.8492 1.78914 30.6738 1.96452L28.0273 4.611C28.0118 4.63236 27.9974 4.65453 27.9842 4.67742H21.3853C20.641 4.67742 19.9272 4.9731 19.4009 5.49941C18.8746 6.02572 18.5789 6.73955 18.5789 7.48387V13.0968H1.74017C1.49207 13.0968 1.25412 13.1953 1.07868 13.3708C0.903247 13.5462 0.804688 13.7842 0.804688 14.0323V25.2581C0.804688 25.5062 0.903247 25.7441 1.07868 25.9195C1.25412 26.095 1.49207 26.1935 1.74017 26.1935H18.5789V28.0645H16.7079C16.4598 28.0645 16.2219 28.1631 16.0464 28.3385C15.871 28.5139 15.7724 28.7519 15.7724 29V32.7419C15.7724 33.4863 16.0681 34.2001 16.5944 34.7264C17.1207 35.2527 17.8346 35.5484 18.5789 35.5484H55.9982C56.7426 35.5484 57.4564 35.2527 57.9827 34.7264C58.509 34.2001 58.8047 33.4863 58.8047 32.7419V29C58.8047 28.7519 58.7061 28.5139 58.5307 28.3385C58.3553 28.1631 58.1173 28.0645 57.8692 28.0645ZM54.1273 7.48387V28.0645H52.2563V9.35484C52.2563 9.10673 52.1577 8.86879 51.9823 8.69335C51.8069 8.51791 51.5689 8.41935 51.3208 8.41935H46.2075C46.0429 7.89698 45.8326 7.39016 45.5788 6.90481L45.9352 6.54839H53.1918C53.4399 6.54839 53.6778 6.64695 53.8533 6.82238C54.0287 6.99782 54.1273 7.23576 54.1273 7.48387ZM25.1273 25.2581V14.0323C25.1273 13.7842 25.0287 13.5462 24.8533 13.3708C24.6778 13.1953 24.4399 13.0968 24.1918 13.0968V10.2903H26.0628V13.0968C26.0628 13.3449 26.1613 13.5828 26.3367 13.7583C26.5122 13.9337 26.7501 14.0323 26.9982 14.0323H28.3697C28.5342 14.5546 28.7446 15.0615 28.9983 15.5468L28.0273 16.5178C27.8519 16.6933 27.7534 16.9312 27.7534 17.1792C27.7534 17.4273 27.8519 17.6652 28.0273 17.8406L30.6738 20.4871C30.8492 20.6625 31.0871 20.761 31.3351 20.761C31.5832 20.761 31.8211 20.6625 31.9965 20.4871L32.9676 19.5161C33.4529 19.7698 33.9597 19.9802 34.4821 20.1447V21.5161C34.4821 21.7642 34.5807 22.0022 34.7561 22.1776C34.9315 22.3531 35.1695 22.4516 35.4176 22.4516H39.1595C39.4076 22.4516 39.6456 22.3531 39.821 22.1776C39.9965 22.0022 40.095 21.7642 40.095 21.5161V20.1447C40.6174 19.9799 41.1243 19.7692 41.6096 19.5151L42.5806 20.4871C42.756 20.6625 42.9939 20.761 43.242 20.761C43.49 20.761 43.7279 20.6625 43.9034 20.4871L46.5499 17.8406C46.7252 17.6652 46.8237 17.4273 46.8237 17.1792C46.8237 16.9312 46.7252 16.6933 46.5499 16.5178L45.5798 15.5468C45.8332 15.0614 46.0432 14.5546 46.2075 14.0323H47.5789C47.827 14.0323 48.0649 13.9337 48.2404 13.7583C48.4158 13.5828 48.5144 13.3449 48.5144 13.0968V10.2903H50.3853V28.0645H24.1918V26.1935C24.4399 26.1935 24.6778 26.095 24.8533 25.9195C25.0287 25.7441 25.1273 25.5062 25.1273 25.2581ZM29.9974 9.56252C30.184 8.74241 30.5089 7.96007 30.9581 7.24906C31.0714 7.06951 31.1202 6.85678 31.0966 6.6458C31.073 6.43483 30.9783 6.23817 30.8281 6.08813L30.0124 5.27239L31.3351 3.94961L32.1509 4.76535C32.3009 4.91554 32.4976 5.01023 32.7086 5.03386C32.9195 5.05749 33.1323 5.00866 33.3118 4.89539C34.0228 4.4461 34.8052 4.12121 35.6253 3.93464C35.8321 3.88754 36.0169 3.77152 36.1491 3.60562C36.2814 3.43971 36.3533 3.23378 36.3531 3.02161V1.87097H38.224V3.02161C38.2238 3.23378 38.2958 3.43971 38.428 3.60562C38.5603 3.77152 38.745 3.88754 38.9518 3.93464C39.772 4.12121 40.5543 4.4461 41.2653 4.89539C41.4449 5.00866 41.6576 5.05749 41.8686 5.03386C42.0795 5.01023 42.2762 4.91554 42.4262 4.76535L43.242 3.94961L44.5648 5.27239L43.749 6.08813C43.5988 6.23817 43.5041 6.43483 43.4805 6.6458C43.4569 6.85678 43.5057 7.06951 43.619 7.24906C44.0683 7.96007 44.3932 8.74241 44.5797 9.56252C44.6268 9.76939 44.7428 9.9541 44.9087 10.0864C45.0747 10.2186 45.2806 10.2905 45.4928 10.2903H46.6434V12.1613H45.4928C45.2806 12.1611 45.0747 12.233 44.9087 12.3653C44.7428 12.4975 44.6268 12.6822 44.5797 12.8891C44.3932 13.7092 44.0683 14.4915 43.619 15.2025C43.5057 15.3821 43.4569 15.5948 43.4805 15.8058C43.5041 16.0168 43.5988 16.2134 43.749 16.3635L44.5648 17.1792L43.242 18.502L42.4262 17.6863C42.2763 17.5363 42.0798 17.4418 41.869 17.4181C41.6582 17.3945 41.4457 17.4432 41.2662 17.5562C40.5551 18.0052 39.7728 18.3301 38.9528 18.517C38.7459 18.5638 38.5611 18.6797 38.4287 18.8454C38.2963 19.0111 38.2241 19.2169 38.224 19.4291V20.5806H36.3531V19.4291C36.353 19.2169 36.2809 19.0111 36.1484 18.8454C36.016 18.6797 35.8312 18.5638 35.6243 18.517C34.8043 18.3301 34.022 18.0052 33.3109 17.5562C33.1314 17.4432 32.9189 17.3945 32.7081 17.4181C32.4973 17.4418 32.3009 17.5363 32.1509 17.6863L31.3351 18.502L30.0124 17.1792L30.8281 16.3635C30.9783 16.2134 31.073 16.0168 31.0966 15.8058C31.1202 15.5948 31.0714 15.3821 30.9581 15.2025C30.5089 14.4915 30.184 13.7092 29.9974 12.8891C29.9503 12.6822 29.8343 12.4975 29.6684 12.3653C29.5025 12.233 29.2965 12.1611 29.0844 12.1613H27.9337V10.2903H29.0844C29.2965 10.2905 29.5025 10.2186 29.6684 10.0864C29.8343 9.9541 29.9503 9.76939 29.9974 9.56252ZM20.4498 7.48387C20.4498 7.23576 20.5484 6.99782 20.7238 6.82238C20.8993 6.64695 21.1372 6.54839 21.3853 6.54839H28.6419L28.9983 6.90481C28.7446 7.39016 28.5342 7.89698 28.3697 8.41935H23.2563C23.0082 8.41935 22.7703 8.51791 22.5948 8.69335C22.4194 8.86879 22.3208 9.10673 22.3208 9.35484V13.0968H20.4498V7.48387ZM2.67566 14.9677H23.2563V24.3226H2.67566V14.9677ZM20.4498 26.1935H22.3208V28.0645H20.4498V26.1935ZM56.9337 32.7419C56.9337 32.99 56.8352 33.228 56.6597 33.4034C56.4843 33.5789 56.2463 33.6774 55.9982 33.6774H18.5789C18.3308 33.6774 18.0928 33.5789 17.9174 33.4034C17.742 33.228 17.6434 32.99 17.6434 32.7419V29.9355H56.9337V32.7419Z" fill="white"/>
<path d="M37.2887 16.8388C38.3988 16.8388 39.484 16.5097 40.407 15.8929C41.3301 15.2761 42.0495 14.3995 42.4743 13.3739C42.8992 12.3483 43.0103 11.2197 42.7937 10.1309C42.5772 9.04212 42.0426 8.042 41.2576 7.25702C40.4726 6.47204 39.4725 5.93747 38.3837 5.72089C37.2949 5.50431 36.1663 5.61547 35.1407 6.0403C34.1151 6.46512 33.2385 7.18454 32.6217 8.10758C32.005 9.03062 31.6758 10.1158 31.6758 11.2259C31.6773 12.7141 32.2691 14.1409 33.3214 15.1932C34.3737 16.2455 35.8005 16.8374 37.2887 16.8388ZM37.2887 7.48401C38.0288 7.48401 38.7522 7.70347 39.3676 8.11464C39.983 8.52581 40.4626 9.11022 40.7458 9.79397C41.029 10.4777 41.1031 11.2301 40.9587 11.956C40.8143 12.6818 40.458 13.3486 39.9346 13.8719C39.4113 14.3952 38.7446 14.7516 38.0187 14.896C37.2928 15.0404 36.5405 14.9663 35.8567 14.683C35.173 14.3998 34.5885 13.9202 34.1774 13.3049C33.7662 12.6895 33.5467 11.966 33.5467 11.2259C33.5467 10.2335 33.941 9.28174 34.6427 8.57999C35.3445 7.87825 36.2963 7.48401 37.2887 7.48401Z" fill="white"/>
<path d="M7.62625 16.1772L4.8198 18.9837C4.64442 19.1591 4.5459 19.397 4.5459 19.6451C4.5459 19.8931 4.64442 20.131 4.8198 20.3065L7.62625 23.1129L8.94902 21.7901L6.80396 19.6451L8.94902 17.5L7.62625 16.1772Z" fill="white"/>
<path d="M18.3052 16.1772L16.9824 17.5L19.1275 19.6451L16.9824 21.7901L18.3052 23.1129L21.1116 20.3065C21.287 20.131 21.3855 19.8931 21.3855 19.6451C21.3855 19.397 21.287 19.1591 21.1116 18.9837L18.3052 16.1772Z" fill="white"/>
<path d="M14.0006 15.4846L10.2588 22.9683L11.9322 23.805L15.674 16.3213L14.0006 15.4846Z" fill="white"/>
</svg>
