<svg width="53" height="58" viewBox="0 0 53 58" fill="none" xmlns="http://www.w3.org/2000/svg">
<path d="M51.359 31.1101C50.9774 30.7283 50.5243 30.4255 50.0256 30.2189C49.5269 30.0123 48.9924 29.906 48.4526 29.906C47.9128 29.906 47.3783 30.0123 46.8796 30.2189C46.381 30.4255 45.9278 30.7283 45.5462 31.1101L38.5104 38.1459C38.2017 37.5745 37.7448 37.0968 37.1876 36.7631C36.6304 36.4295 35.9936 36.2522 35.3442 36.2498H25.0523C24.1663 35.1775 23.066 34.3021 21.8219 33.6798C20.5779 33.0575 19.2176 32.7019 17.8281 32.636C16.4387 32.57 15.0508 32.7951 13.7534 33.2968C12.456 33.7985 11.2777 34.5657 10.2941 35.5493L6.34385 39.4996L5.17205 38.3279C5.08793 38.2437 4.98804 38.1769 4.87809 38.1314C4.76815 38.0858 4.65031 38.0624 4.5313 38.0624C4.41229 38.0624 4.29445 38.0858 4.18451 38.1314C4.07457 38.1769 3.97468 38.2437 3.89055 38.3279L0.26551 41.9529C0.181336 42.037 0.114563 42.1369 0.0690058 42.2469C0.0234485 42.3568 0 42.4747 0 42.5937C0 42.7127 0.0234485 42.8305 0.0690058 42.9405C0.114563 43.0504 0.181336 43.1503 0.26551 43.2344L14.7657 57.7346C14.8498 57.8187 14.9497 57.8855 15.0596 57.9311C15.1696 57.9766 15.2874 58.0001 15.4064 58.0001C15.5254 58.0001 15.6433 57.9766 15.7532 57.9311C15.8632 57.8855 15.963 57.8187 16.0472 57.7346L19.6722 54.1095C19.7564 54.0254 19.8232 53.9255 19.8687 53.8156C19.9143 53.7056 19.9377 53.5878 19.9377 53.4688C19.9377 53.3498 19.9143 53.2319 19.8687 53.122C19.8232 53.012 19.7564 52.9122 19.6722 52.828L18.5005 51.6562L19.5169 50.6398C20.028 50.1319 20.7186 49.8459 21.4392 49.8437H34.6844C35.8751 49.847 37.0545 49.6141 38.1546 49.1585C39.2546 48.7028 40.2533 48.0334 41.0928 47.1891L51.359 36.9229C51.7407 36.5412 52.0436 36.0881 52.2502 35.5894C52.4567 35.0908 52.5631 34.5563 52.5631 34.0165C52.5631 33.4767 52.4567 32.9422 52.2502 32.4435C52.0436 31.9448 51.7407 31.4917 51.359 31.1101ZM15.4064 55.8123L2.1878 42.5936L4.53133 40.2501L17.75 53.4688L15.4064 55.8123ZM50.0775 35.6414L39.8113 45.9076C39.1396 46.583 38.3406 47.1184 37.4605 47.4829C36.5805 47.8474 35.6369 48.0338 34.6844 48.0312H21.4392C20.8439 48.0296 20.2543 48.146 19.7044 48.3738C19.1544 48.6016 18.6551 48.9362 18.2354 49.3583L17.219 50.3747L7.62535 40.7811L11.5757 36.8308C12.3912 36.0153 13.3702 35.3817 14.4481 34.9716C15.526 34.5614 16.6786 34.3841 17.8299 34.4511C18.9813 34.5182 20.1054 34.8282 21.1284 35.3608C22.1514 35.8933 23.0502 36.6364 23.7655 37.5411L23.9049 37.7176C23.9896 37.8251 24.0977 37.9119 24.2208 37.9716C24.344 38.0314 24.4791 38.0624 24.616 38.0623H35.3442C35.8249 38.0623 36.2859 38.2533 36.6258 38.5932C36.9657 38.9331 37.1567 39.3941 37.1567 39.8749C37.1567 40.3556 36.9657 40.8166 36.6258 41.1565C36.2859 41.4964 35.8249 41.6874 35.3442 41.6874H22.6565C22.4162 41.6874 22.1857 41.7829 22.0157 41.9528C21.8457 42.1228 21.7503 42.3533 21.7503 42.5936C21.7503 42.834 21.8457 43.0645 22.0157 43.2345C22.1857 43.4044 22.4162 43.4999 22.6565 43.4999H35.3442C36.2306 43.4971 37.0852 43.1689 37.7457 42.5776C38.4062 41.9863 38.8265 41.1731 38.927 40.2923L46.8278 32.3915C47.2655 31.9736 47.8474 31.7404 48.4526 31.7404C49.0579 31.7404 49.6398 31.9736 50.0775 32.3915C50.2909 32.6049 50.4602 32.8582 50.5757 33.137C50.6912 33.4158 50.7506 33.7147 50.7506 34.0164C50.7506 34.3182 50.6912 34.617 50.5757 34.8958C50.4602 35.1746 50.2909 35.428 50.0775 35.6414Z" fill="white"/>
<path d="M15.1743 18.4669C15.1616 18.4846 15.1426 18.4947 15.131 18.5135C15.1281 18.5184 15.1283 18.5241 15.1254 18.5291C12.3691 22.0298 10.8719 26.3566 10.875 30.8122C10.875 30.9604 10.8759 31.1078 10.8861 31.2556C10.902 31.4843 11.0041 31.6986 11.1716 31.8551C11.3392 32.0116 11.5599 32.0987 11.7892 32.099C11.8105 32.099 11.8317 32.0981 11.8529 32.0968C11.9717 32.0886 12.0876 32.057 12.1942 32.004C12.3007 31.9509 12.3957 31.8774 12.4738 31.7876C12.552 31.6978 12.6116 31.5935 12.6494 31.4807C12.6872 31.3678 12.7024 31.2486 12.6942 31.1299C12.6866 31.0237 12.6875 30.918 12.6875 30.8122C12.6883 27.003 13.8972 23.2922 16.1403 20.2135C18.7033 21.887 20.2034 23.5038 20.2651 24.7082C20.1703 25.8539 19.8084 26.9615 19.2084 27.9421C18.9415 28.493 18.6614 29.0727 18.403 29.6935C18.3573 29.8034 18.3336 29.9212 18.3334 30.0403C18.3332 30.1593 18.3565 30.2772 18.4018 30.3872C18.4934 30.6095 18.6696 30.7862 18.8915 30.8786C19.0014 30.9243 19.1192 30.9479 19.2383 30.9481C19.3573 30.9483 19.4752 30.9251 19.5852 30.8797C19.8075 30.7881 19.9842 30.612 20.0766 30.39C20.3213 29.8024 20.5872 29.2537 20.8399 28.732C21.5923 27.4848 22.0172 26.0676 22.0749 24.6122C21.9812 22.7843 20.3577 20.8297 17.2806 18.7958C18.6681 17.2251 20.3162 15.9055 22.1523 14.895C23.9174 18.3346 26.0413 20.1499 28.3603 20.1499C28.529 20.15 28.6976 20.1405 28.8652 20.1216C30.472 20.0193 32.0054 19.4127 33.2474 18.3883C34.0452 17.7714 34.3758 17.5165 36.2051 18.1555C37.9137 18.7504 39.7148 18.0046 41.3465 16.0694C42.7589 17.0812 44.0186 18.2907 45.087 19.6608C43.9961 20.8258 43.1377 22.1884 42.5578 23.6754C41.7848 25.3631 41.2622 26.4026 40.301 26.4929C39.6767 26.5317 39.0505 26.529 38.4266 26.4849C36.0353 26.3672 33.0611 26.2278 30.9367 30.4042C30.4549 31.3453 30.1312 32.3592 29.9786 33.4053C29.9453 33.6433 30.0079 33.8848 30.1526 34.0767C30.2973 34.2685 30.5123 34.395 30.7504 34.4284C30.7924 34.4344 30.8348 34.4374 30.8773 34.4372C31.0957 34.437 31.3066 34.3578 31.4712 34.2144C31.6359 34.071 31.7432 33.8729 31.7734 33.6566C31.8967 32.8079 32.1603 31.9855 32.5535 31.2233C34.1448 28.0947 35.998 28.1863 38.3402 28.2952C39.0485 28.3448 39.7594 28.3457 40.4678 28.2979C42.5233 28.104 43.3787 26.2362 44.2057 24.4299C44.6741 23.2448 45.3302 22.1428 46.1487 21.1662C47.3608 23.0842 48.1986 25.2144 48.618 27.4443C48.6397 27.5613 48.6844 27.6729 48.7493 27.7728C48.8142 27.8726 48.8982 27.9586 48.9964 28.026C49.0946 28.0933 49.2051 28.1406 49.3215 28.1653C49.438 28.1899 49.5583 28.1913 49.6753 28.1694C49.7923 28.1476 49.9039 28.1029 50.0037 28.0379C50.1034 27.9728 50.1894 27.8888 50.2567 27.7906C50.3239 27.6923 50.3712 27.5818 50.3957 27.4652C50.4202 27.3487 50.4215 27.2285 50.3995 27.1115C49.5652 22.7023 47.2666 18.704 43.8761 15.7643C40.4856 12.8246 36.2019 11.1158 31.719 10.9147V9.91335C31.7191 9.4058 31.8618 8.9085 32.131 8.4782C32.4002 8.04791 32.7849 7.70195 33.2413 7.47982C33.7455 8.06733 34.3707 8.53893 35.0741 8.86233C35.7775 9.18574 36.5425 9.35331 37.3167 9.35358C38.0509 9.34729 38.7787 9.21651 39.4691 8.96682C40.625 8.56221 41.7213 8.00408 42.7286 7.30744C43.1647 6.91606 43.7012 6.65385 44.2779 6.55021C44.8546 6.44657 45.4488 6.5056 45.9939 6.72068C46.1774 6.76776 46.3711 6.75612 46.5477 6.68739C46.7244 6.61866 46.875 6.4963 46.9784 6.33751C47.0819 6.17873 47.1329 5.99151 47.1245 5.80219C47.116 5.61287 47.0483 5.43097 46.9311 5.28208C46.7369 5.03513 42.1224 -0.745379 37.6805 0.0816735C33.3929 0.880849 32.8906 3.48142 32.6816 5.73667C31.9381 6.05167 31.2927 6.56037 30.8128 7.20973C30.3328 6.56025 29.6874 6.05145 28.9438 5.73639C28.7347 3.48122 28.2324 0.880795 23.945 0.0816735C19.5026 -0.749802 14.8886 5.03557 14.6943 5.28204C14.5771 5.43093 14.5094 5.61283 14.501 5.80215C14.4925 5.99147 14.5435 6.17869 14.647 6.33747C14.7504 6.49626 14.9011 6.61862 15.0777 6.68735C15.2543 6.75609 15.448 6.76773 15.6315 6.72064C16.1766 6.50544 16.7708 6.44634 17.3476 6.54999C17.9243 6.65363 18.4608 6.91591 18.8968 7.30741C19.9041 8.00406 21.0004 8.56218 22.1563 8.96681C22.8467 9.21675 23.5745 9.34753 24.3087 9.35356C25.0829 9.35326 25.8479 9.18566 26.5513 8.86224C27.2548 8.53881 27.88 8.0672 28.3842 7.4797C28.8406 7.70185 29.2253 8.04783 29.4945 8.47815C29.7636 8.90847 29.9064 9.40579 29.9065 9.91335V10.8975C27.051 11.0255 24.2567 11.768 21.7143 13.0743C19.1718 14.3806 16.9411 16.22 15.1743 18.4669ZM38.0123 1.86322C39.9979 1.49018 42.3715 3.21464 43.9876 4.75855C43.1683 4.9288 42.3982 5.28202 41.7347 5.79182C40.8501 6.40715 39.886 6.89972 38.869 7.25608C38.2419 7.52972 37.5511 7.62408 36.8735 7.52869C36.1959 7.4333 35.558 7.15188 35.0307 6.71572L37.426 5.7104C37.5361 5.66456 37.636 5.59745 37.7201 5.51292C37.8042 5.42839 37.8707 5.32809 37.916 5.21779C37.9612 5.10748 37.9843 4.98933 37.9838 4.8701C37.9833 4.75088 37.9593 4.63292 37.9131 4.523C37.8669 4.41307 37.7995 4.31334 37.7147 4.22951C37.63 4.14569 37.5295 4.07941 37.419 4.0345C37.3086 3.98958 37.1904 3.9669 37.0711 3.96775C36.9519 3.9686 36.834 3.99298 36.7242 4.03947L34.6018 4.93041C34.8537 3.3802 35.4901 2.3336 38.0123 1.86322ZM22.7564 7.25608C21.7394 6.89972 20.7754 6.40715 19.8907 5.79182C19.2266 5.28125 18.4555 4.92784 17.6352 4.75814C19.2486 3.21378 21.6151 1.49198 23.6131 1.86323C26.1353 2.33351 26.7717 3.38031 27.0236 4.93027L24.9012 4.03947C24.7915 3.99339 24.6738 3.96937 24.5548 3.96878C24.4358 3.96819 24.3179 3.99105 24.2077 4.03604C24.0975 4.08104 23.9973 4.14729 23.9127 4.23102C23.8282 4.31474 23.7609 4.41431 23.7149 4.52402C23.6688 4.63374 23.6448 4.75145 23.6442 4.87045C23.6436 4.98945 23.6664 5.10739 23.7114 5.21756C23.7564 5.32772 23.8227 5.42795 23.9064 5.51251C23.9901 5.59707 24.0897 5.66431 24.1994 5.71039L26.5951 6.71576C26.0676 7.15166 25.4297 7.4329 24.7521 7.52828C24.0745 7.62365 23.3837 7.52944 22.7564 7.25608ZM36.8025 16.4439C34.2377 15.5491 33.2903 16.0647 32.1389 16.9541C31.1588 17.7727 29.9399 18.252 28.6647 18.3202C26.5176 18.5662 24.7894 16.0764 23.7729 14.1105C26.3411 13.0278 29.1244 12.552 31.9064 12.72C34.6884 12.888 37.3942 13.6953 39.8135 15.0791C39.0281 15.9633 37.9203 16.8344 36.8025 16.4439Z" fill="white"/>
</svg>
