<svg width="58" height="61" viewBox="0 0 58 61" fill="none" xmlns="http://www.w3.org/2000/svg">
<path d="M37.6981 31.5469C44.5587 31.5469 50.1401 25.9549 50.1401 19.0817C50.1401 12.2084 44.5587 6.61646 37.6981 6.61646C30.8375 6.61646 25.2561 12.2084 25.2561 19.0817C25.2561 25.9549 30.8376 31.5469 37.6981 31.5469ZM30.3801 26.9641C31.1263 23.5245 34.1366 21.0713 37.6981 21.0713C41.2596 21.0713 44.2698 23.5245 45.0161 26.9641C43.0956 28.755 40.5225 29.8524 37.6981 29.8524C34.8736 29.8524 32.3007 28.755 30.3801 26.9641ZM37.6981 19.3499C35.9744 19.3499 34.5721 17.9449 34.5721 16.218C34.5721 14.4912 35.9744 13.0863 37.6981 13.0863C39.4217 13.0863 40.824 14.4912 40.824 16.218C40.824 17.9449 39.4217 19.3499 37.6981 19.3499ZM37.6981 8.31078C43.626 8.31078 48.4489 13.1425 48.4489 19.0815C48.4489 21.4737 47.666 23.686 46.3441 25.4754C45.8118 23.9891 44.9015 22.6507 43.6903 21.6051C42.8296 20.8619 41.8443 20.2931 40.7897 19.9154C41.8438 19.0294 42.5153 17.701 42.5153 16.2179C42.5153 13.5568 40.3544 11.3918 37.6981 11.3918C35.0418 11.3918 32.8808 13.5568 32.8808 16.2179C32.8808 17.701 33.5525 19.0294 34.6065 19.9154C33.552 20.2931 32.5667 20.8619 31.7059 21.6051C30.4949 22.6508 29.5845 23.9891 29.0522 25.4754C27.7302 23.686 26.9474 21.4737 26.9474 19.0815C26.9474 13.1425 31.7701 8.31078 37.6981 8.31078ZM57.3644 38.5666C56.54 37.6288 54.8696 37.1675 52.9966 38.2508C50.6601 39.6023 44.8573 42.4372 40.5045 44.0939C40.6749 43.2826 40.5379 42.432 40.0924 41.6811C39.4521 40.6015 38.3258 39.9829 37.0784 40.0243C31.6936 40.0216 28.2091 38.5735 25.1343 37.2958C22.339 36.134 19.925 35.1305 17.0689 35.8232C14.1853 36.5224 11.1156 38.9175 7.15412 43.5672C6.13101 43.0746 4.8652 43.2497 4.01823 44.0982L0.247623 47.8759C-0.0825409 48.2068 -0.0825409 48.7432 0.247623 49.074L11.9037 60.7519C12.0624 60.9107 12.2774 61 12.5017 61C12.7261 61 12.9411 60.9107 13.0997 60.7519L16.8703 56.9741C17.388 56.4554 17.6732 55.7638 17.6732 55.0267C17.6732 54.6836 17.6089 54.3512 17.4907 54.0407C19.8976 53.0305 22.581 52.9431 26.0103 53.1489C26.781 53.1951 27.5901 53.2604 28.4466 53.3295C30.4788 53.4935 32.5807 53.6633 34.6109 53.618C38.8771 53.5236 41.4447 52.3232 44.8749 50.5027C48.3709 48.6474 55.827 44.2166 57.22 42.3823C58.2049 41.0849 58.2616 39.5873 57.3644 38.5667V38.5666ZM15.6743 55.7759L12.5016 58.9546L2.04148 48.4749L5.21421 45.2962C5.62652 44.883 6.2976 44.883 6.71003 45.2962L15.6745 54.2774C15.8727 54.476 15.9819 54.742 15.9819 55.0266C15.9819 55.3111 15.8726 55.5773 15.6743 55.7759ZM55.874 41.3563C54.8934 42.6476 48.622 46.5966 44.0832 49.0052C40.8667 50.7123 38.4671 51.8376 34.5733 51.9239C32.6294 51.9668 30.5719 51.801 28.5823 51.6404C27.7168 51.5705 26.8993 51.5046 26.1112 51.4574C23.0684 51.275 19.589 51.2106 16.4436 52.6519L8.45557 44.6491C16.2894 35.4551 19.2222 36.6732 24.4862 38.8608C27.55 40.1342 31.3629 41.7188 37.0929 41.7188C37.1036 41.7188 37.1142 41.7185 37.1248 41.7182C37.7529 41.6942 38.3165 42.0043 38.6383 42.5467C38.9601 43.0892 38.9612 43.7351 38.6412 44.2745C38.0583 45.2571 35.9484 45.767 32.9981 45.6376C30.2316 45.5167 27.4474 44.8546 26.3537 44.2844C25.9395 44.0686 25.4289 44.2297 25.2132 44.6448C24.9976 45.0598 25.1587 45.5714 25.573 45.7875C27.0548 46.5602 30.1465 47.209 32.9244 47.3305C33.2346 47.3441 33.5554 47.3519 33.8819 47.3519C35.3618 47.3519 36.9587 47.189 38.2183 46.6572C42.616 45.4153 50.8193 41.4665 53.842 39.7181C54.8809 39.1172 55.7382 39.2804 56.0949 39.6864C56.4465 40.0863 56.3638 40.7106 55.8736 41.3561L55.874 41.3563ZM17.2453 35.2523C19.8931 35.2523 22.2336 33.9117 23.6285 31.8732C23.8055 32.1139 24.0042 32.3476 24.2307 32.5744C25.5861 33.9323 27.2435 34.4228 29.2986 34.0738C30.7811 33.8221 32.1858 34.4052 33.0563 35.6333C34.2633 37.3358 35.7817 38.1634 37.6983 38.1634C39.6149 38.1634 41.1333 37.3358 42.3402 35.6333C43.2108 34.4053 44.6156 33.8225 46.0981 34.0739C48.1529 34.4223 49.8111 33.9319 51.1659 32.5744C52.5214 31.2164 53.0109 29.5555 52.6625 27.497C52.4113 26.0118 52.9932 24.6046 54.219 23.7323C55.9184 22.5231 56.7445 21.0018 56.7445 19.0818C56.7445 17.1617 55.9184 15.6404 54.219 14.4311C52.9933 13.5589 52.4114 12.1516 52.6627 10.6663C53.0105 8.60719 52.521 6.94639 51.1659 5.58889C49.8103 4.23092 48.1524 3.74025 46.098 4.08955C44.6157 4.34081 43.2108 3.75816 42.3403 2.53017C41.1334 0.827617 39.615 0 37.6984 0C35.7818 0 34.2634 0.827617 33.0564 2.53017C32.1858 3.75816 30.7808 4.34118 29.2986 4.08943C27.2437 3.74098 25.5857 4.23152 24.2307 5.58889C22.8752 6.94687 22.3857 8.60779 22.7343 10.6664C22.9854 12.1515 22.4035 13.5589 21.1777 14.4311C19.4783 15.6404 18.6522 17.1616 18.6522 19.0818C18.6522 19.3608 18.672 19.6315 18.7073 19.8952C18.2336 19.8041 17.7453 19.7546 17.2456 19.7546C12.9807 19.7546 9.51105 23.2308 9.51105 27.5035C9.51105 31.7763 12.9807 35.2525 17.2456 35.2525L17.2453 35.2523ZM20.3433 19.0817C20.3433 17.7132 20.9026 16.705 22.1568 15.8125C23.9246 14.5546 24.7637 12.525 24.4015 10.3831C24.1443 8.86378 24.4603 7.75476 25.4264 6.78699C26.4051 5.80651 27.4786 5.49945 29.0161 5.76003C31.1541 6.12301 33.1797 5.28232 34.4352 3.51126C35.326 2.2547 36.3323 1.69433 37.6983 1.69433C39.0643 1.69433 40.0706 2.2547 40.9614 3.51126C42.2169 5.28232 44.2427 6.12301 46.3805 5.76015C47.8969 5.5026 49.004 5.81922 49.9701 6.78699C50.9488 7.76747 51.2553 8.84308 50.9951 10.3833C50.6328 12.5251 51.4719 14.5547 53.2397 15.8126C54.4939 16.7051 55.0532 17.7133 55.0532 19.0818C55.0532 20.4503 54.4939 21.4585 53.2397 22.3509C51.4719 23.6089 50.6327 25.6384 50.995 27.7802C51.252 29.2994 50.936 30.4086 49.9701 31.3763C48.9914 32.3568 47.918 32.6637 46.3804 32.4033C44.243 32.0406 42.2168 32.8812 40.9613 34.6522C40.0706 35.9087 39.0643 36.469 37.6983 36.469C36.3323 36.469 35.326 35.9087 34.4352 34.6522C33.1797 32.8811 31.1537 32.0402 29.016 32.4033C27.4995 32.661 26.3925 32.3442 25.4266 31.3765C25.0145 30.9636 24.7252 30.5309 24.545 30.0608C24.8255 29.2596 24.9798 28.3994 24.9798 27.5034C24.9798 24.4344 23.1897 21.7766 20.6007 20.5224C20.4287 20.0924 20.3433 19.6187 20.3433 19.0817ZM17.2453 21.4489C20.5775 21.4489 23.2885 24.1649 23.2885 27.5034C23.2885 30.842 20.5776 33.5579 17.2453 33.5579C13.913 33.5579 11.2021 30.842 11.2021 27.5034C11.2021 24.1649 13.9131 21.4489 17.2453 21.4489ZM13.5515 27.3261C13.318 26.9209 13.4566 26.4028 13.861 26.1688C14.2654 25.935 14.7827 26.0737 15.0162 26.4789L16.0607 28.2913L19.6088 24.7366C19.9391 24.4059 20.4745 24.406 20.8046 24.7366C21.1348 25.0675 21.1348 25.604 20.8046 25.9347L16.4772 30.2701C16.3176 30.43 16.1021 30.5182 15.8794 30.5182C15.8426 30.5182 15.8058 30.5158 15.7689 30.511C15.5082 30.4766 15.2783 30.3227 15.147 30.0946L13.5515 27.3261Z" fill="white"/>
</svg>
