<svg width="58" height="58" viewBox="0 0 58 58" fill="none" xmlns="http://www.w3.org/2000/svg">
<path d="M31.9388 29.3454C31.81 29.0234 31.4236 28.7659 31.0373 28.7659C30.6509 28.7659 30.329 28.959 30.2002 29.3454L25.8215 39.455C25.6284 39.9701 25.8215 40.4852 26.3367 40.7428C26.8518 40.936 27.3669 40.7428 27.6245 40.2277L28.5904 38.0383H33.613L34.5788 40.2277C34.7076 40.614 35.094 40.8072 35.4803 40.8072C35.6091 40.8072 35.7379 40.8072 35.8667 40.7428C36.3818 40.5496 36.575 39.9701 36.3818 39.455L31.9388 29.3454ZM29.3631 36.0422L31.0373 32.1143L32.7759 36.0422H29.3631Z" fill="white"/>
<path d="M40.3096 28.7659C39.7945 28.7659 39.3438 29.2166 39.3438 29.7318V39.8413C39.3438 40.3564 39.7945 40.8072 40.3096 40.8072C40.8248 40.8072 41.2755 40.3564 41.2755 39.8413V29.7318C41.2755 29.1522 40.8248 28.7659 40.3096 28.7659Z" fill="white"/>
<path d="M4.95801 15.4369H7.66247C8.17761 15.4369 8.62836 14.9861 8.62836 14.471C8.62836 13.9559 8.242 13.5051 7.66247 13.5051H4.89362C4.37848 13.5051 3.92773 13.9559 3.92773 14.471C3.92773 14.9861 4.37848 15.4369 4.95801 15.4369Z" fill="white"/>
<path d="M7.14752 31.5992C7.14752 31.084 6.69678 30.6333 6.18164 30.6333H0.965881C0.450745 30.6333 0 31.084 0 31.5992C0 32.1143 0.450745 32.5651 0.965881 32.5651H6.18164C6.76117 32.5651 7.14752 32.1143 7.14752 31.5992Z" fill="white"/>
<path d="M5.40857 47.7615H2.63971C2.12457 47.7615 1.67383 48.2122 1.67383 48.7274C1.67383 49.2425 2.12457 49.6932 2.63971 49.6932H5.40857C5.9237 49.6932 6.37445 49.2425 6.37445 48.7274C6.37445 48.2122 5.9237 47.7615 5.40857 47.7615Z" fill="white"/>
<path d="M48.2942 16.0164L49.9684 11.7021L50.9343 12.0885C51.3851 12.2816 51.8358 12.346 52.2222 12.346C53.7032 12.346 55.0554 11.4445 55.6349 10.0279C55.9569 9.12642 55.9569 8.09614 55.5705 7.25905C55.1842 6.35756 54.4759 5.64925 53.5744 5.32729L40.5672 0.240313C38.6998 -0.468 36.5749 0.433489 35.8022 2.36525C35.0939 4.23262 35.9953 6.35756 37.9271 7.06587L38.893 7.45222L37.2188 11.7665C33.2909 11.3157 29.2342 11.8953 25.4994 13.5051H13.3937C12.8786 13.5051 12.4279 13.9558 12.4279 14.471C12.4279 14.9861 12.8786 15.4368 13.3937 15.4368H21.8935C20.2837 16.5315 18.8027 17.755 17.5148 19.236H9.98096C9.46582 19.236 9.01507 19.6867 9.01507 20.2019C9.01507 20.717 9.46582 21.1677 9.98096 21.1677H15.9694C15.1323 22.3268 14.3596 23.6146 13.7157 24.9669H2.18951C1.67438 24.9669 1.22363 25.4176 1.22363 25.9327C1.22363 26.4479 1.67438 26.8986 2.18951 26.8986H12.8786C11.7839 29.9894 11.3332 33.2091 11.5264 36.3643H5.60229C5.08716 36.3643 4.63641 36.815 4.63641 37.3301C4.63641 37.8453 5.08716 38.296 5.60229 38.296H11.7195C11.9127 39.5839 12.2347 40.8073 12.621 42.0952H8.75751C8.24237 42.0952 7.79162 42.5459 7.79162 43.061C7.79162 43.5762 8.24237 44.0269 8.75751 44.0269H13.3293C13.3293 44.0913 13.3937 44.1557 13.3937 44.2201C13.9733 45.5079 14.6172 46.667 15.3899 47.8261H11.0112C10.4961 47.8261 10.0453 48.2768 10.0453 48.7919C10.0453 49.3071 10.4961 49.7578 11.0112 49.7578H16.8065C19.3178 52.7199 22.473 55.038 26.2078 56.4546C28.9122 57.4849 31.7455 58 34.5787 58C37.7339 58 40.9535 57.3561 43.98 56.0038C49.6465 53.4926 53.9607 48.9207 56.2145 43.1898C60.1424 33.0803 56.5364 22.0692 48.2942 16.0164ZM37.6052 3.00917C37.9271 2.10768 38.9574 1.65694 39.8589 2.04329L52.8017 7.06587C53.2524 7.25905 53.5744 7.58101 53.7676 7.96736C53.9607 8.41811 53.9607 8.86885 53.832 9.31959C53.51 10.2211 52.4797 10.6718 51.5782 10.2855L38.571 5.26289C37.7339 4.87654 37.2832 3.91066 37.6052 3.00917ZM40.6316 8.09615L48.1011 10.9938L46.5557 14.9217C45.3966 14.2134 44.2375 13.6339 42.9497 13.1187C41.6619 12.6036 40.374 12.2816 39.0862 12.0241L40.6316 8.09615ZM54.4759 42.4171C50.226 53.3638 37.9271 58.7727 26.9805 54.5872C21.7003 52.5267 17.5148 48.5344 15.1967 43.383C12.8786 38.1672 12.7498 32.4363 14.8104 27.1562C15.7118 24.8381 16.9997 22.7131 18.5451 20.9102C18.5451 20.9102 18.5451 20.9102 18.6095 20.8458C20.6056 18.5277 23.1169 16.6603 26.0146 15.3724C28.7834 14.149 31.7455 13.5051 34.6431 13.5051C37.2188 13.5051 39.7945 13.9558 42.3058 14.9217C53.2524 19.1716 58.6614 31.4705 54.4759 42.4171Z" fill="white"/>
<path d="M41.0816 18.2058C31.9379 14.6642 21.6352 19.236 18.0936 28.3797C16.355 32.8228 16.4838 37.6522 18.4156 41.9664C20.3474 46.2807 23.8245 49.6291 28.2676 51.3677C30.3281 52.1404 32.5175 52.5911 34.6424 52.5911C37.0893 52.5911 39.5362 52.076 41.8543 51.0457C46.1686 49.114 49.517 45.6368 51.2556 41.1937C54.7327 32.0501 50.1609 21.7473 41.0816 18.2058ZM41.9187 48.792L41.2104 47.1178C41.0172 46.6027 40.4377 46.4095 39.9225 46.6027C39.4074 46.7958 39.2142 47.3754 39.4074 47.8905L40.1157 49.5647C36.7673 50.7882 33.2258 50.9169 29.813 49.8223L31.0364 46.6027C31.2296 46.0875 30.972 45.5724 30.4569 45.3792C29.9418 45.186 29.4266 45.4436 29.2335 45.9587L28.01 49.1784C24.726 47.6329 22.1503 45.1217 20.5405 42.0952L22.2147 41.3869C22.7299 41.1937 22.923 40.6142 22.7299 40.0991C22.5367 39.5839 21.9572 39.3908 21.442 39.5839L19.7678 40.2922C18.5444 37.0726 18.4156 33.4667 19.5103 29.9895L22.7299 31.213C22.8586 31.2774 22.9874 31.2774 23.0518 31.2774C23.4382 31.2774 23.8245 31.0198 23.9533 30.6334C24.1465 30.1183 23.8889 29.6032 23.3738 29.41L20.1542 28.1865C21.6996 24.9025 24.2109 22.3269 27.2373 20.7171L27.9456 22.3913C28.0744 22.7776 28.4608 22.9708 28.8471 22.9708C28.9759 22.9708 29.1047 22.9708 29.2335 22.9064C29.7486 22.7132 29.9418 22.1337 29.7486 21.6185L29.1691 19.9444C30.9077 19.3004 32.775 18.9141 34.7068 18.9141C36.3166 18.9141 37.9264 19.1716 39.4718 19.6868L38.2484 22.9064C38.0552 23.4215 38.3127 23.9367 38.8279 24.1298C38.9567 24.1942 39.0855 24.1942 39.1498 24.1942C39.5362 24.1942 39.9226 23.9367 40.0513 23.5503L41.2748 20.3307C44.5588 21.8761 47.1345 24.3874 48.7443 27.4138L47.0701 28.1221C46.5549 28.3153 46.3618 28.8949 46.5549 29.41C46.6837 29.7963 47.0701 29.9895 47.4564 29.9895C47.5852 29.9895 47.714 29.9895 47.8428 29.9251L49.517 29.2168C50.7404 32.4364 50.8692 36.0424 49.7745 39.5195L46.5549 38.2961C46.0398 38.1029 45.5247 38.3605 45.3315 38.8756C45.1383 39.3908 45.3959 39.9059 45.911 40.0991L49.1306 41.3225C47.5852 44.6065 45.0739 47.1822 41.9187 48.792Z" fill="white"/>
</svg>
