<svg width="228" height="53" viewBox="0 0 228 53" fill="none" xmlns="http://www.w3.org/2000/svg">
<path d="M227.707 12.7952C220.865 12.2798 215.428 6.84232 214.922 0C214.417 6.84232 208.979 12.2798 202.127 12.7952C208.969 13.3006 214.407 18.7381 214.922 25.5905C215.428 18.7482 220.865 13.3107 227.717 12.7952H227.707Z" fill="white"/>
<path d="M0 41.0341V12.8765H15.0592C17.7274 12.8765 19.8498 13.3414 21.4164 14.2813C22.9829 15.2212 24.0643 16.3532 24.6607 17.6772C25.257 19.0012 25.5602 20.3555 25.5602 21.7503C25.5602 23.0844 25.257 24.3982 24.6404 25.6919C24.0239 26.9856 22.9425 28.0872 21.3759 28.9969C19.8094 29.9065 17.7072 30.3613 15.0592 30.3613H5.37683V41.024H0V41.0341ZM15.0592 25.6717C18.4753 25.6717 20.1732 24.3477 20.1732 21.7098C20.1732 20.4263 19.7487 19.4156 18.9099 18.6576C18.071 17.8996 16.7672 17.5256 15.0086 17.5256H5.37683V25.6717H15.0592Z" fill="white"/>
<path d="M28.1069 41.0335V19.4049H33.4838V23.9226C34.2822 22.8109 35.4849 21.8002 37.1121 20.8704C38.7292 19.9506 40.5686 19.4554 42.6102 19.3948V24.0439C40.9931 24.0439 39.4771 24.3168 38.0925 24.8525C36.6977 25.3881 35.5759 26.1765 34.7269 27.1972C33.8779 28.218 33.4433 29.4207 33.4433 30.7852V41.0234H28.1069V41.0335Z" fill="white"/>
<path d="M50.8876 19.4048H45.5107V41.0334H50.8876V19.4048Z" fill="white"/>
<path d="M59.6102 40.8419C58.2862 40.5184 56.7197 40.0131 54.9004 39.3258V35.1921C57.9426 36.5869 61.1262 37.3853 64.4514 37.5773C66.3009 37.638 67.6755 37.4359 68.5851 36.981C69.4947 36.5262 69.9495 35.8693 69.9495 35.0203C69.9495 34.2219 69.5452 33.6357 68.7367 33.2516C67.9281 32.8676 66.4121 32.5947 64.1987 32.4229C60.8129 32.2511 58.2458 31.5941 56.4771 30.4419C54.7185 29.2898 53.8291 27.6626 53.8291 25.5603C53.8291 24.0847 54.294 22.8214 55.234 21.7804C56.1739 20.7394 57.4676 19.9814 59.115 19.4962C60.7624 19.0111 62.6423 18.8393 64.7445 18.9808C66.7658 19.1223 68.5345 19.3952 70.0506 19.7893C71.5666 20.1835 73.0018 20.6888 74.3359 21.2851V25.4694C72.6278 24.6406 71.041 24.0241 69.5553 23.6097C68.0797 23.1953 66.5435 22.9528 64.9466 22.8618C63.2386 22.8012 61.864 23.0235 60.8331 23.4985C59.7921 23.9837 59.2767 24.6911 59.2767 25.6311C59.2767 26.4295 59.6607 27.0258 60.4289 27.42C61.197 27.8142 62.5917 28.1174 64.6131 28.3195C67.2813 28.6025 69.3936 29.0068 70.9299 29.5323C72.4661 30.0579 73.5778 30.7653 74.2752 31.6649C74.9726 32.5644 75.3162 33.7064 75.3162 35.1012C75.3162 37.2337 74.3662 38.871 72.4762 40.003C70.5862 41.1451 67.8877 41.6201 64.3907 41.4584C62.5109 41.3775 60.914 41.1653 59.59 40.8419H59.6102Z" fill="white"/>
<path d="M77.8936 41.0333V19.4047H83.3108V23.1543C83.9374 21.8708 84.9582 20.85 86.3833 20.0819C87.8084 19.3137 89.3547 18.9297 91.0324 18.9297C92.9932 18.9297 94.7012 19.3946 96.1465 20.3345C97.5918 21.2745 98.562 22.5783 99.0471 24.256C99.6434 22.7501 100.695 21.4867 102.2 20.476C103.706 19.4653 105.586 18.96 107.83 18.96C109.71 18.96 111.408 19.3542 112.924 20.1526C114.44 20.9511 115.653 22.1133 116.552 23.6496C117.452 25.1858 117.896 27.005 117.896 29.1073V41.0131H112.52V29.8754C112.52 28.137 112.024 26.6715 111.024 25.4587C110.023 24.2459 108.608 23.6496 106.759 23.6496C104.909 23.6496 103.343 24.256 102.221 25.4587C101.099 26.6715 100.533 28.2078 100.533 30.0876V41.003H95.156V30.0876C95.156 28.1875 94.6709 26.6311 93.7107 25.4385C92.7405 24.2459 91.3356 23.6496 89.4861 23.6496C87.6365 23.6496 86.0397 24.2156 84.9481 25.3576C83.8566 26.4997 83.3108 28.0056 83.3108 29.8754L83.2704 41.0131H77.8936V41.0333Z" fill="white"/>
<path d="M51.7872 14.2705C49.8669 14.129 48.3407 12.6029 48.1992 10.6826C48.0578 12.6029 46.5316 14.129 44.6113 14.2705C46.5316 14.412 48.0578 15.9382 48.1992 17.8585C48.3407 15.9382 49.8669 14.412 51.7872 14.2705Z" fill="white"/>
<path d="M120.464 41.0341V12.8765H125.881V23.4078C126.73 22.2657 127.912 21.2651 129.418 20.3757C130.924 19.4964 132.713 19.0214 134.795 18.9709L135.735 18.9305C138.039 18.9305 140.061 19.4156 141.809 20.3858C143.558 21.3561 144.912 22.7003 145.862 24.4185C146.812 26.1366 147.287 28.1074 147.287 30.331V41.0341H141.87V30.2804C141.87 28.2894 141.172 26.6824 139.778 25.4595C138.383 24.2365 136.412 23.6301 133.845 23.6301C131.278 23.6301 129.337 24.2365 127.912 25.4392C126.487 26.6521 125.78 28.2894 125.78 30.3613V41.024H120.443L120.464 41.0341Z" fill="white"/>
<path d="M161.406 41.4984C159.101 41.4984 157.08 41.0133 155.331 40.043C153.583 39.0728 152.229 37.7286 151.279 36.0104C150.329 34.2922 149.854 32.3214 149.854 30.0979V19.3948H155.23V30.1484C155.23 32.1395 155.928 33.7465 157.322 34.9694C158.717 36.1923 160.708 36.8088 163.296 36.8088C165.802 36.8088 167.773 36.2024 169.228 34.9694C170.684 33.7465 171.391 32.1092 171.361 30.0676L171.28 19.4049H176.697V41.0335H171.28V37.0211C170.37 38.1631 169.178 39.1637 167.692 40.0531C166.216 40.9324 164.438 41.4074 162.356 41.458L161.416 41.4984H161.406Z" fill="white"/>
<path d="M185.844 40.0734C183.772 39.1537 182.145 37.8398 180.983 36.152C179.821 34.4641 179.234 32.4933 179.234 30.2395C179.234 27.9654 179.81 25.9845 180.963 24.2866C182.115 22.5987 183.732 21.2848 185.804 20.3651C187.876 19.4454 190.251 18.9805 192.929 18.9805C195.749 18.9805 198.185 19.4858 200.246 20.4965C202.308 21.5072 203.885 22.9727 204.976 24.893C206.068 26.8133 206.594 29.0772 206.533 31.6949H184.995C185.309 33.2917 186.208 34.5753 187.704 35.5557C189.2 36.536 190.928 37.0313 192.889 37.0313C194.597 37.0313 196.072 36.7078 197.326 36.0711C198.579 35.4344 199.559 34.5753 200.267 33.4939H206.199C205.088 36.0206 203.471 37.9914 201.338 39.376C199.205 40.7708 196.406 41.4682 192.939 41.4682C190.291 41.4682 187.936 41.0032 185.854 40.0835L185.844 40.0734ZM200.782 28.7437C200.529 27.1266 199.64 25.8127 198.134 24.8222C196.628 23.8317 194.89 23.3264 192.929 23.3264C190.968 23.3264 189.159 23.8216 187.684 24.8222C186.208 25.8228 185.369 27.1266 185.167 28.7437H200.782Z" fill="white"/>
<path d="M48.1992 51.6053V46.7136H48.7147V51.6053H48.1992Z" fill="white"/>
<path d="M56.1839 47.906C56.477 47.906 56.7397 47.9666 56.9621 48.0778C57.1844 48.189 57.3562 48.3608 57.4775 48.5933C57.5988 48.8257 57.6595 49.1188 57.6595 49.4726V51.6051H57.1642V49.5231C57.1642 49.139 57.0733 48.8459 56.8913 48.6438C56.7094 48.4417 56.4466 48.3507 56.1131 48.3507C55.8604 48.3507 55.6482 48.4012 55.4562 48.5124C55.2742 48.6135 55.1328 48.7651 55.0317 48.9672C54.9306 49.1694 54.8801 49.4018 54.8801 49.6848V51.6152H54.3848V49.5332C54.3848 49.1491 54.2939 48.856 54.1019 48.6539C53.9098 48.4518 53.6572 48.3608 53.3236 48.3608C53.071 48.3608 52.8587 48.4113 52.6768 48.5225C52.4848 48.6236 52.3433 48.7752 52.2523 48.9773C52.1613 49.1795 52.1007 49.4119 52.1007 49.6949V51.6253H51.6055V47.9565H52.0805V48.947L51.9996 48.7752C52.1108 48.5124 52.2927 48.3002 52.5353 48.1486C52.788 47.997 53.0811 47.9262 53.4146 47.9262C53.7784 47.9262 54.0816 48.0172 54.3343 48.1991C54.587 48.381 54.7487 48.6438 54.8194 49.0077L54.6274 48.9268C54.7386 48.6337 54.9205 48.3911 55.1934 48.2092C55.4663 48.0273 55.7897 47.9363 56.1738 47.9363L56.1839 47.906Z" fill="white"/>
<path d="M60.4082 52.9595V47.9364H60.8832V49.0381L60.8327 49.7759L60.9034 50.5137V52.9595H60.4082ZM62.3083 51.6456C61.995 51.6456 61.7019 51.5749 61.4492 51.4233C61.1965 51.2818 60.9944 51.0695 60.8428 50.7865C60.6912 50.5036 60.6204 50.17 60.6204 49.7658C60.6204 49.3615 60.6912 49.028 60.8428 48.745C60.9944 48.4721 61.1965 48.2598 61.4492 48.1082C61.7019 47.9667 61.995 47.896 62.3184 47.896C62.6721 47.896 62.9753 47.9769 63.2583 48.1285C63.5312 48.2801 63.7536 48.5024 63.9153 48.7854C64.077 49.0684 64.1477 49.3918 64.1477 49.7557C64.1477 50.1195 64.0669 50.453 63.9153 50.736C63.7536 51.019 63.5413 51.2312 63.2583 51.393C62.9753 51.5547 62.6721 51.6254 62.3184 51.6254L62.3083 51.6456ZM62.2679 51.2009C62.5306 51.2009 62.7631 51.1403 62.9652 51.019C63.1674 50.8977 63.3291 50.736 63.4504 50.5137C63.5716 50.2913 63.6323 50.0488 63.6323 49.7658C63.6323 49.4828 63.5716 49.2301 63.4504 49.0179C63.3291 48.8056 63.1674 48.6338 62.9652 48.5125C62.7631 48.3912 62.5306 48.3306 62.2679 48.3306C62.0051 48.3306 61.7726 48.3912 61.5705 48.5125C61.3683 48.6338 61.1965 48.8056 61.0854 49.0179C60.9641 49.2301 60.9034 49.4828 60.9034 49.7658C60.9034 50.0488 60.9641 50.3014 61.0854 50.5137C61.2066 50.7259 61.3683 50.8977 61.5705 51.019C61.7726 51.1403 62.0152 51.2009 62.2679 51.2009Z" fill="white"/>
<path d="M67.5742 51.6455C67.3013 51.6455 67.0587 51.6051 66.8566 51.5141C66.6545 51.4232 66.5029 51.3019 66.3917 51.1402C66.2805 50.9785 66.23 50.7966 66.23 50.5843C66.23 50.3923 66.2704 50.2205 66.3614 50.0689C66.4523 49.9173 66.6039 49.7859 66.8061 49.6949C67.0082 49.6039 67.2912 49.5534 67.6449 49.5534H68.9083V49.9274H67.655C67.3013 49.9274 67.0587 49.988 66.9172 50.1194C66.7757 50.2508 66.7151 50.4024 66.7151 50.5843C66.7151 50.7966 66.796 50.9583 66.9577 51.0897C67.1194 51.221 67.3518 51.2817 67.6449 51.2817C67.9279 51.2817 68.1604 51.221 68.3625 51.0897C68.5647 50.9583 68.7163 50.7763 68.8072 50.5338L68.9184 50.8774C68.8274 51.12 68.6657 51.312 68.4333 51.4535C68.2008 51.595 67.9077 51.6657 67.5641 51.6657L67.5742 51.6455ZM68.8375 51.6051V50.7966L68.8173 50.6652V49.3109C68.8173 48.9975 68.7264 48.755 68.5546 48.5933C68.3827 48.4215 68.12 48.3406 67.7763 48.3406C67.5439 48.3406 67.3114 48.381 67.0992 48.4619C66.8869 48.5427 66.705 48.6438 66.5534 48.7752L66.331 48.4012C66.513 48.2395 66.7454 48.1182 66.9981 48.0374C67.2508 47.9565 67.5338 47.906 67.8269 47.906C68.3019 47.906 68.6657 48.0273 68.9285 48.2597C69.1913 48.4922 69.3126 48.856 69.3126 49.3311V51.6051H68.8375Z" fill="white"/>
<path d="M73.5877 51.6456C73.2239 51.6456 72.9005 51.5648 72.6175 51.4031C72.3345 51.2414 72.102 51.019 71.9403 50.736C71.7786 50.453 71.6978 50.1296 71.6978 49.7658C71.6978 49.4019 71.7786 49.0785 71.9403 48.7955C72.102 48.5125 72.3244 48.3003 72.6175 48.1386C72.9005 47.9769 73.2239 47.896 73.5877 47.896C73.901 47.896 74.184 47.9566 74.4367 48.0779C74.6894 48.1992 74.8814 48.3811 75.033 48.6237L74.6591 48.8764C74.5277 48.6944 74.3761 48.5529 74.1941 48.462C74.0021 48.371 73.8101 48.3306 73.5877 48.3306C73.3249 48.3306 73.0925 48.3912 72.8803 48.5125C72.668 48.6338 72.5063 48.7955 72.385 49.0077C72.2637 49.22 72.2031 49.4727 72.2031 49.7658C72.2031 50.0589 72.2637 50.3014 72.385 50.5238C72.5063 50.736 72.668 50.9078 72.8803 51.019C73.0925 51.1403 73.3249 51.2009 73.5877 51.2009C73.8101 51.2009 74.0122 51.1605 74.1941 51.0695C74.3862 50.9786 74.5378 50.8472 74.6591 50.6653L75.033 50.9179C74.8915 51.1504 74.6894 51.3323 74.4367 51.4637C74.184 51.585 73.901 51.6456 73.5877 51.6456Z" fill="white"/>
<path d="M76.8223 48.3506V47.9362H79.0963V48.3506H76.8223ZM78.5505 51.6454C78.2069 51.6454 77.9441 51.5545 77.7521 51.3624C77.5601 51.1704 77.4691 50.9076 77.4691 50.5741V47.1277H77.9643V50.5438C77.9643 50.756 78.0149 50.9279 78.126 51.039C78.2372 51.1603 78.3888 51.2108 78.6011 51.2108C78.8234 51.2108 79.0053 51.1502 79.1468 51.0188L79.3187 51.3726C79.2176 51.4635 79.1064 51.5242 78.9649 51.5646C78.8234 51.605 78.6819 51.6252 78.5404 51.6252L78.5505 51.6454Z" fill="white"/>
<path d="M81.0566 48.3509V47.9365H83.3307V48.3509H81.0566ZM81.7035 51.6053V47.4817C81.7035 47.1583 81.8046 46.8955 81.9865 46.6933C82.1684 46.4912 82.4514 46.3901 82.8152 46.3901C82.9567 46.3901 83.0881 46.4103 83.2195 46.4508C83.3509 46.4912 83.4621 46.5417 83.5429 46.6226L83.3711 46.9965C83.3004 46.9359 83.2195 46.8955 83.1285 46.8652C83.0376 46.8348 82.9365 46.8247 82.8253 46.8247C82.6131 46.8247 82.4615 46.8854 82.3402 46.9965C82.2189 47.1077 82.1684 47.2896 82.1684 47.512V48.0679L82.1785 48.3003V51.6154H81.6833L81.7035 51.6053Z" fill="white"/>
<path d="M86.9085 51.646C86.5952 51.646 86.3223 51.5853 86.0899 51.4742C85.8574 51.363 85.6755 51.1811 85.5441 50.9486C85.4127 50.7161 85.3521 50.423 85.3521 50.0794V47.9469H85.8473V50.0188C85.8473 50.4129 85.9484 50.706 86.1404 50.8981C86.3324 51.1002 86.6053 51.1912 86.9489 51.1912C87.2016 51.1912 87.424 51.1406 87.616 51.0295C87.808 50.9183 87.9495 50.7768 88.0506 50.5746C88.1516 50.3725 88.2022 50.13 88.2022 49.8571V47.9368H88.6974V51.6055H88.2224V50.5949L88.3032 50.7768C88.1921 51.0497 88.0102 51.2619 87.7575 51.4034C87.5149 51.555 87.2319 51.6258 86.8984 51.6258L86.9085 51.646Z" fill="white"/>
<path d="M91.4766 51.6057V46.4209H91.9718V51.6057H91.4766Z" fill="white"/>
<path d="M99.4408 51.6459C99.077 51.6459 98.7232 51.5853 98.3998 51.464C98.0663 51.3427 97.8035 51.1911 97.6216 51.0092L97.8237 50.6151C97.9955 50.7869 98.228 50.9183 98.5211 51.0395C98.8142 51.1608 99.1174 51.2114 99.4408 51.2114C99.7642 51.2114 99.9967 51.1709 100.189 51.1002C100.381 51.0193 100.522 50.9183 100.613 50.7869C100.704 50.6555 100.755 50.514 100.755 50.3523C100.755 50.1602 100.704 50.0086 100.593 49.8874C100.482 49.7661 100.34 49.6751 100.158 49.6145C99.9866 49.5437 99.7844 49.4831 99.5722 49.4326C99.36 49.382 99.1477 49.3315 98.9254 49.2708C98.7131 49.2102 98.511 49.1395 98.3392 49.0384C98.1573 48.9373 98.0158 48.816 97.9046 48.6543C97.7934 48.4926 97.7429 48.2804 97.7429 48.0277C97.7429 47.7851 97.8035 47.5628 97.9349 47.3607C98.0663 47.1585 98.2583 46.9968 98.5211 46.8755C98.7839 46.7542 99.1275 46.6936 99.5419 46.6936C99.8148 46.6936 100.088 46.734 100.361 46.8048C100.633 46.8856 100.866 46.9867 101.058 47.1181L100.886 47.5325C100.674 47.391 100.452 47.2899 100.219 47.2293C99.9866 47.1686 99.7541 47.1282 99.5419 47.1282C99.2488 47.1282 99.0062 47.1686 98.8142 47.2495C98.6222 47.3303 98.4807 47.4314 98.3897 47.5628C98.2987 47.6942 98.2482 47.8458 98.2482 48.0176C98.2482 48.2096 98.2987 48.3612 98.4099 48.4825C98.5211 48.6038 98.6626 48.6948 98.8445 48.7554C99.0264 48.816 99.2185 48.8767 99.4408 48.9272C99.6531 48.9777 99.8653 49.0384 100.078 49.099C100.29 49.1597 100.482 49.2405 100.664 49.3315C100.846 49.4224 100.987 49.5538 101.098 49.7155C101.21 49.8773 101.26 50.0794 101.26 50.3422C101.26 50.5847 101.189 50.797 101.068 50.9991C100.937 51.2012 100.734 51.363 100.472 51.4842C100.209 51.6055 99.8653 51.6662 99.4408 51.6662V51.6459Z" fill="white"/>
<path d="M103.928 47.1284C103.827 47.1284 103.736 47.0879 103.666 47.0273C103.595 46.9667 103.564 46.8757 103.564 46.7746C103.564 46.6736 103.605 46.5927 103.666 46.522C103.736 46.4512 103.827 46.4209 103.928 46.4209C104.029 46.4209 104.12 46.4512 104.191 46.522C104.262 46.5927 104.292 46.6736 104.292 46.7645C104.292 46.8555 104.262 46.9566 104.191 47.0273C104.12 47.0981 104.039 47.1284 103.928 47.1284ZM103.676 51.6057V47.9369H104.171V51.6057H103.676Z" fill="white"/>
<path d="M108.426 51.4636C108.073 51.4636 107.759 51.3929 107.486 51.2413C107.203 51.0897 106.991 50.8774 106.829 50.6146C106.668 50.3418 106.587 50.0385 106.587 49.6848C106.587 49.3311 106.668 49.0279 106.829 48.755C106.991 48.4821 107.214 48.28 107.486 48.1284C107.759 47.9768 108.083 47.906 108.426 47.906C108.75 47.906 109.043 47.9768 109.306 48.1081C109.568 48.2395 109.771 48.4417 109.932 48.7044C110.084 48.9672 110.165 49.2906 110.165 49.6747C110.165 50.0588 110.084 50.3822 109.932 50.645C109.781 50.9077 109.568 51.1099 109.306 51.2514C109.043 51.3929 108.75 51.4636 108.426 51.4636ZM108.517 52.9998C108.184 52.9998 107.86 52.9493 107.557 52.8583C107.254 52.7573 107.001 52.6158 106.809 52.4339L107.062 52.0599C107.234 52.2115 107.446 52.3328 107.699 52.4238C107.951 52.5147 108.224 52.5551 108.507 52.5551C108.972 52.5551 109.316 52.444 109.538 52.2317C109.76 52.0195 109.862 51.6758 109.862 51.221V50.3013L109.932 49.6747L109.882 49.0481V47.9363H110.357V51.1604C110.357 51.7971 110.205 52.262 109.892 52.5551C109.579 52.8482 109.124 52.9998 108.517 52.9998ZM108.477 51.029C108.75 51.029 108.982 50.9684 109.194 50.8572C109.407 50.746 109.568 50.5843 109.69 50.3822C109.811 50.18 109.872 49.9476 109.872 49.6848C109.872 49.422 109.811 49.1896 109.69 48.9874C109.568 48.7853 109.407 48.6337 109.194 48.5124C108.982 48.4012 108.74 48.3406 108.477 48.3406C108.214 48.3406 107.972 48.4012 107.759 48.5124C107.547 48.6236 107.385 48.7853 107.264 48.9874C107.143 49.1896 107.082 49.422 107.082 49.6848C107.082 49.9476 107.143 50.18 107.264 50.3822C107.385 50.5843 107.547 50.746 107.759 50.8572C107.972 50.9684 108.214 51.029 108.477 51.029Z" fill="white"/>
<path d="M115.006 47.906C115.299 47.906 115.561 47.9666 115.794 48.0778C116.026 48.189 116.198 48.3608 116.329 48.5933C116.461 48.8257 116.522 49.1188 116.522 49.4726V51.6051H116.026V49.5231C116.026 49.139 115.925 48.8459 115.733 48.6438C115.541 48.4417 115.268 48.3507 114.915 48.3507C114.652 48.3507 114.429 48.4012 114.237 48.5124C114.045 48.6135 113.894 48.7651 113.793 48.9672C113.692 49.1694 113.631 49.4018 113.631 49.6848V51.6152H113.136V47.9464H113.611V48.9571L113.53 48.7651C113.641 48.5023 113.833 48.2901 114.086 48.1385C114.338 47.9869 114.652 47.9161 115.006 47.9161V47.906Z" fill="white"/>
<path d="M120.241 51.6458C119.938 51.6458 119.655 51.6054 119.382 51.5144C119.109 51.4235 118.897 51.3224 118.745 51.191L118.967 50.7969C119.119 50.908 119.311 51.0091 119.544 51.09C119.776 51.1708 120.019 51.2112 120.281 51.2112C120.635 51.2112 120.878 51.1607 121.039 51.0495C121.201 50.9383 121.272 50.7969 121.272 50.6149C121.272 50.4835 121.231 50.3724 121.14 50.3016C121.049 50.2208 120.938 50.1702 120.807 50.1298C120.665 50.0894 120.514 50.0591 120.342 50.0287C120.17 49.9984 119.998 49.9681 119.827 49.9277C119.655 49.8872 119.503 49.8367 119.362 49.766C119.22 49.6952 119.109 49.5941 119.028 49.4729C118.947 49.3516 118.897 49.1798 118.897 48.9675C118.897 48.7553 118.957 48.5835 119.069 48.4319C119.18 48.2701 119.341 48.1489 119.564 48.0579C119.776 47.9669 120.049 47.9265 120.352 47.9265C120.585 47.9265 120.827 47.9568 121.07 48.0175C121.312 48.0781 121.504 48.159 121.656 48.2701L121.444 48.6643C121.282 48.5531 121.11 48.4723 120.918 48.4217C120.726 48.3712 120.544 48.351 120.362 48.351C120.029 48.351 119.786 48.4116 119.635 48.5228C119.483 48.634 119.402 48.7856 119.402 48.9574C119.402 49.0989 119.442 49.2101 119.533 49.2808C119.624 49.3617 119.736 49.4223 119.877 49.4628C120.019 49.5032 120.17 49.5436 120.342 49.5739C120.514 49.6042 120.686 49.6346 120.847 49.675C121.019 49.7154 121.171 49.766 121.312 49.8367C121.454 49.9075 121.565 49.9984 121.656 50.1197C121.747 50.241 121.787 50.4027 121.787 50.6048C121.787 50.8171 121.727 50.999 121.605 51.1607C121.484 51.3224 121.312 51.4336 121.09 51.5245C120.868 51.6155 120.585 51.6559 120.271 51.6559L120.241 51.6458Z" fill="white"/>
<path d="M123.758 52.6263L124.061 51.3326L124.112 51.6358C124 51.6358 123.92 51.6055 123.839 51.5348C123.768 51.464 123.728 51.3731 123.728 51.2619C123.728 51.1507 123.768 51.0598 123.839 50.989C123.909 50.9183 124 50.8879 124.101 50.8879C124.203 50.8879 124.294 50.9284 124.364 50.9991C124.435 51.0699 124.465 51.1608 124.465 51.2619C124.465 51.3023 124.465 51.3326 124.465 51.3731C124.465 51.4135 124.455 51.4539 124.435 51.5045C124.425 51.555 124.405 51.6055 124.374 51.6763L124.081 52.6364H123.748L123.758 52.6263Z" fill="white"/>
<path d="M131.621 51.6459C131.257 51.6459 130.903 51.5853 130.58 51.464C130.246 51.3427 129.984 51.1911 129.802 51.0092L130.004 50.6151C130.176 50.7869 130.408 50.9183 130.701 51.0395C130.994 51.1608 131.298 51.2114 131.621 51.2114C131.944 51.2114 132.177 51.1709 132.369 51.1002C132.561 51.0193 132.702 50.9183 132.793 50.7869C132.884 50.6555 132.935 50.514 132.935 50.3523C132.935 50.1602 132.884 50.0086 132.773 49.8874C132.662 49.7661 132.521 49.6751 132.339 49.6145C132.167 49.5437 131.965 49.4831 131.752 49.4326C131.54 49.382 131.328 49.3315 131.106 49.2708C130.893 49.2102 130.691 49.1395 130.519 49.0384C130.337 48.9373 130.196 48.816 130.085 48.6543C129.974 48.4926 129.923 48.2804 129.923 48.0277C129.923 47.7851 129.984 47.5628 130.115 47.3607C130.246 47.1585 130.439 46.9968 130.701 46.8755C130.964 46.7542 131.308 46.6936 131.722 46.6936C131.995 46.6936 132.268 46.734 132.541 46.8048C132.814 46.8856 133.046 46.9867 133.238 47.1181L133.066 47.5325C132.854 47.391 132.632 47.2899 132.399 47.2293C132.167 47.1686 131.934 47.1282 131.722 47.1282C131.429 47.1282 131.186 47.1686 130.994 47.2495C130.802 47.3303 130.661 47.4314 130.57 47.5628C130.479 47.6942 130.428 47.8458 130.428 48.0176C130.428 48.2096 130.479 48.3612 130.59 48.4825C130.701 48.6038 130.843 48.6948 131.025 48.7554C131.207 48.816 131.399 48.8767 131.621 48.9272C131.833 48.9777 132.045 49.0384 132.258 49.099C132.47 49.1597 132.662 49.2405 132.844 49.3315C133.026 49.4224 133.167 49.5538 133.279 49.7155C133.39 49.8773 133.44 50.0794 133.44 50.3422C133.44 50.5847 133.369 50.797 133.248 50.9991C133.117 51.2012 132.915 51.363 132.652 51.4842C132.389 51.6055 132.045 51.6662 131.621 51.6662V51.6459Z" fill="white"/>
<path d="M135.29 48.3506V47.9362H137.564V48.3506H135.29ZM137.018 51.6454C136.675 51.6454 136.412 51.5545 136.22 51.3624C136.028 51.1704 135.937 50.9076 135.937 50.5741V47.1277H136.432V50.5438C136.432 50.756 136.483 50.9279 136.594 51.039C136.705 51.1603 136.857 51.2108 137.069 51.2108C137.291 51.2108 137.473 51.1502 137.615 51.0188L137.786 51.3726C137.685 51.4635 137.574 51.5242 137.433 51.5646C137.291 51.605 137.15 51.6252 137.008 51.6252L137.018 51.6454Z" fill="white"/>
<path d="M140.09 51.6051V47.9363H140.565V48.9369L140.515 48.7651C140.616 48.4821 140.788 48.2698 141.03 48.1284C141.273 47.9768 141.576 47.906 141.93 47.906V48.3911C141.93 48.3911 141.889 48.3911 141.879 48.3911C141.859 48.3911 141.839 48.3911 141.819 48.3911C141.435 48.3911 141.131 48.5124 140.909 48.7449C140.687 48.9773 140.586 49.3109 140.586 49.7454V51.6152H140.09V51.6051Z" fill="white"/>
<path d="M145.78 51.6455C145.427 51.6455 145.103 51.5647 144.82 51.403C144.537 51.2413 144.315 51.0189 144.153 50.7359C143.992 50.4529 143.911 50.1295 143.911 49.7758C143.911 49.422 143.992 49.0885 144.153 48.8055C144.315 48.5225 144.537 48.3103 144.82 48.1486C145.103 47.9869 145.417 47.906 145.78 47.906C146.144 47.906 146.468 47.9869 146.751 48.1486C147.034 48.3103 147.256 48.5326 147.418 48.8055C147.579 49.0784 147.66 49.4018 147.66 49.7758C147.66 50.1497 147.579 50.463 147.418 50.746C147.256 51.029 147.034 51.2514 146.751 51.4131C146.468 51.5748 146.144 51.6556 145.791 51.6556L145.78 51.6455ZM145.78 51.2008C146.043 51.2008 146.286 51.1402 146.488 51.0189C146.69 50.8976 146.852 50.7359 146.973 50.5136C147.094 50.3013 147.155 50.0487 147.155 49.7657C147.155 49.4827 147.094 49.2199 146.973 49.0076C146.852 48.7954 146.69 48.6236 146.488 48.5124C146.286 48.4012 146.053 48.3305 145.791 48.3305C145.528 48.3305 145.295 48.3911 145.093 48.5124C144.891 48.6337 144.729 48.7954 144.608 49.0076C144.487 49.2199 144.426 49.4726 144.426 49.7657C144.426 50.0588 144.487 50.3013 144.608 50.5136C144.729 50.7258 144.891 50.8976 145.093 51.0189C145.295 51.1402 145.528 51.2008 145.791 51.2008H145.78Z" fill="white"/>
<path d="M151.936 47.906C152.229 47.906 152.492 47.9666 152.724 48.0778C152.956 48.189 153.128 48.3608 153.26 48.5933C153.391 48.8257 153.452 49.1188 153.452 49.4726V51.6051H152.956V49.5231C152.956 49.139 152.855 48.8459 152.663 48.6438C152.471 48.4417 152.198 48.3507 151.845 48.3507C151.582 48.3507 151.36 48.4012 151.168 48.5124C150.976 48.6135 150.824 48.7651 150.723 48.9672C150.622 49.1694 150.561 49.4018 150.561 49.6848V51.6152H150.066V47.9464H150.541V48.9571L150.46 48.7651C150.571 48.5023 150.763 48.2901 151.016 48.1385C151.269 47.9869 151.582 47.9161 151.936 47.9161V47.906Z" fill="white"/>
<path d="M157.656 51.4636C157.303 51.4636 156.989 51.3929 156.716 51.2413C156.433 51.0897 156.221 50.8774 156.059 50.6146C155.898 50.3418 155.817 50.0385 155.817 49.6848C155.817 49.3311 155.898 49.0279 156.059 48.755C156.221 48.4821 156.444 48.28 156.716 48.1284C156.999 47.9768 157.313 47.906 157.656 47.906C157.98 47.906 158.273 47.9768 158.536 48.1081C158.798 48.2395 159.001 48.4417 159.162 48.7044C159.314 48.9672 159.395 49.2906 159.395 49.6747C159.395 50.0588 159.314 50.3822 159.162 50.645C159.011 50.9077 158.798 51.1099 158.536 51.2514C158.273 51.3929 157.98 51.4636 157.656 51.4636ZM157.747 52.9998C157.414 52.9998 157.09 52.9493 156.787 52.8583C156.484 52.7573 156.231 52.6158 156.039 52.4339L156.292 52.0599C156.464 52.2115 156.676 52.3328 156.929 52.4238C157.181 52.5147 157.454 52.5551 157.737 52.5551C158.202 52.5551 158.546 52.444 158.768 52.2317C158.99 52.0195 159.092 51.6758 159.092 51.221V50.3013L159.162 49.6747L159.112 49.0481V47.9363H159.587V51.1604C159.587 51.7971 159.435 52.262 159.122 52.5551C158.809 52.8482 158.354 52.9998 157.747 52.9998ZM157.707 51.029C157.98 51.029 158.212 50.9684 158.424 50.8572C158.637 50.746 158.798 50.5843 158.92 50.3822C159.041 50.18 159.102 49.9476 159.102 49.6848C159.102 49.422 159.041 49.1896 158.92 48.9874C158.798 48.7853 158.637 48.6337 158.424 48.5124C158.212 48.4012 157.97 48.3406 157.707 48.3406C157.444 48.3406 157.202 48.4012 156.989 48.5124C156.777 48.6236 156.615 48.7853 156.494 48.9874C156.373 49.1896 156.312 49.422 156.312 49.6848C156.312 49.9476 156.373 50.18 156.494 50.3822C156.615 50.5843 156.777 50.746 156.989 50.8572C157.202 50.9684 157.444 51.029 157.707 51.029Z" fill="white"/>
<path d="M163.922 51.6455C163.538 51.6455 163.205 51.5647 162.922 51.403C162.629 51.2413 162.406 51.0189 162.245 50.7359C162.083 50.4529 162.002 50.1295 162.002 49.7657C162.002 49.4018 162.083 49.0784 162.234 48.8055C162.386 48.5225 162.598 48.3103 162.871 48.1486C163.144 47.9869 163.447 47.906 163.791 47.906C164.134 47.906 164.438 47.9869 164.711 48.1385C164.973 48.2901 165.186 48.5124 165.337 48.7954C165.489 49.0784 165.57 49.4018 165.57 49.7657C165.57 49.7859 165.57 49.8162 165.57 49.8364C165.57 49.8667 165.57 49.8869 165.57 49.9173H162.376V49.5433H165.307L165.115 49.6848C165.115 49.422 165.054 49.1795 164.943 48.9773C164.832 48.7752 164.67 48.6135 164.478 48.4922C164.286 48.381 164.054 48.3204 163.801 48.3204C163.548 48.3204 163.326 48.381 163.124 48.4922C162.922 48.6135 162.77 48.7752 162.659 48.9773C162.548 49.1896 162.487 49.4321 162.487 49.6949V49.7758C162.487 50.0588 162.548 50.3013 162.669 50.5136C162.79 50.7258 162.962 50.8875 163.184 51.0088C163.407 51.1301 163.659 51.1907 163.942 51.1907C164.165 51.1907 164.377 51.1503 164.569 51.0694C164.761 50.9886 164.933 50.8673 165.074 50.7056L165.357 51.029C165.196 51.221 164.994 51.3726 164.751 51.4737C164.508 51.5748 164.236 51.6253 163.942 51.6253L163.922 51.6455Z" fill="white"/>
<path d="M167.985 51.6051V47.9363H168.46V48.9369L168.41 48.7651C168.511 48.4821 168.683 48.2698 168.925 48.1284C169.168 47.9768 169.471 47.906 169.825 47.906V48.3911C169.825 48.3911 169.784 48.3911 169.774 48.3911C169.754 48.3911 169.734 48.3911 169.714 48.3911C169.33 48.3911 169.026 48.5124 168.804 48.7449C168.582 48.9773 168.481 49.3109 168.481 49.7454V51.6152H167.985V51.6051Z" fill="white"/>
<path d="M175.515 51.6053V46.7136H177.627C178.173 46.7136 178.598 46.8248 178.901 47.0471C179.204 47.2695 179.346 47.5727 179.346 47.977C179.346 48.2398 179.285 48.4621 179.164 48.644C179.042 48.8259 178.871 48.9674 178.658 49.0584C178.446 49.1494 178.214 49.1999 177.961 49.1999L178.082 49.0281C178.396 49.0281 178.658 49.0786 178.891 49.1696C179.113 49.2605 179.295 49.4121 179.416 49.5941C179.538 49.7861 179.608 50.0186 179.608 50.2914C179.608 50.7058 179.457 51.0292 179.154 51.2516C178.85 51.4739 178.385 51.5952 177.769 51.5952H175.525L175.515 51.6053ZM176.031 51.1808H177.759C178.183 51.1808 178.517 51.1101 178.739 50.9585C178.972 50.8069 179.083 50.5744 179.083 50.2611C179.083 49.9478 178.972 49.7153 178.739 49.5637C178.507 49.4223 178.183 49.3414 177.759 49.3414H175.98V48.9169H177.597C177.991 48.9169 178.295 48.8462 178.507 48.6946C178.729 48.543 178.83 48.3206 178.83 48.0275C178.83 47.7344 178.719 47.5121 178.507 47.3605C178.295 47.219 177.991 47.1381 177.597 47.1381H176.041V51.1808H176.031Z" fill="white"/>
<path d="M182.074 51.6051V47.9363H182.549V48.9369L182.499 48.7651C182.6 48.4821 182.772 48.2698 183.014 48.1284C183.257 47.9768 183.56 47.906 183.914 47.906V48.3911C183.914 48.3911 183.873 48.3911 183.863 48.3911C183.843 48.3911 183.823 48.3911 183.802 48.3911C183.418 48.3911 183.115 48.5124 182.893 48.7449C182.671 48.9773 182.569 49.3109 182.569 49.7454V51.6152H182.074V51.6051Z" fill="white"/>
<path d="M187.3 51.6455C187.027 51.6455 186.784 51.6051 186.582 51.5141C186.38 51.4232 186.228 51.3019 186.117 51.1402C186.006 50.9785 185.956 50.7966 185.956 50.5843C185.956 50.3923 185.996 50.2205 186.087 50.0689C186.178 49.9173 186.33 49.7859 186.532 49.6949C186.734 49.6039 187.017 49.5534 187.371 49.5534H188.634V49.9274H187.381C187.027 49.9274 186.784 49.988 186.643 50.1194C186.501 50.2508 186.441 50.4024 186.441 50.5843C186.441 50.7966 186.522 50.9583 186.683 51.0897C186.845 51.221 187.077 51.2817 187.371 51.2817C187.654 51.2817 187.886 51.221 188.088 51.0897C188.29 50.9583 188.442 50.7763 188.533 50.5338L188.644 50.8774C188.553 51.12 188.391 51.312 188.159 51.4535C187.926 51.595 187.633 51.6657 187.29 51.6657L187.3 51.6455ZM188.573 51.6051V50.7966L188.553 50.6652V49.3109C188.553 48.9975 188.462 48.755 188.29 48.5933C188.118 48.4215 187.856 48.3406 187.512 48.3406C187.28 48.3406 187.047 48.381 186.835 48.4619C186.623 48.5427 186.441 48.6438 186.289 48.7752L186.067 48.4012C186.249 48.2395 186.481 48.1182 186.734 48.0374C186.986 47.9565 187.269 47.906 187.563 47.906C188.038 47.906 188.401 48.0273 188.664 48.2597C188.927 48.4922 189.048 48.856 189.048 49.3311V51.6051H188.573Z" fill="white"/>
<path d="M193.657 47.906C193.95 47.906 194.213 47.9666 194.445 48.0778C194.678 48.189 194.849 48.3608 194.981 48.5933C195.112 48.8257 195.173 49.1188 195.173 49.4726V51.6051H194.678V49.5231C194.678 49.139 194.577 48.8459 194.385 48.6438C194.193 48.4417 193.92 48.3507 193.566 48.3507C193.303 48.3507 193.081 48.4012 192.889 48.5124C192.697 48.6135 192.545 48.7651 192.444 48.9672C192.343 49.1694 192.282 49.4018 192.282 49.6848V51.6152H191.787V47.9464H192.262V48.9571L192.181 48.7651C192.292 48.5023 192.484 48.2901 192.737 48.1385C192.99 47.9869 193.303 47.9161 193.657 47.9161V47.906Z" fill="white"/>
<path d="M199.367 51.6458C199.014 51.6458 198.7 51.5649 198.427 51.4133C198.154 51.2516 197.932 51.0394 197.77 50.7564C197.609 50.4734 197.528 50.15 197.528 49.7861C197.528 49.4223 197.609 49.0888 197.77 48.8058C197.932 48.5228 198.144 48.3105 198.427 48.1488C198.71 47.9972 199.024 47.9164 199.367 47.9164C199.691 47.9164 199.974 47.9871 200.226 48.1286C200.479 48.2701 200.681 48.4824 200.833 48.7653C200.984 49.0483 201.055 49.3819 201.055 49.7861C201.055 50.1904 200.984 50.5239 200.833 50.7968C200.681 51.0798 200.479 51.292 200.226 51.4335C199.974 51.5851 199.681 51.6559 199.357 51.6559L199.367 51.6458ZM199.398 51.2011C199.66 51.2011 199.893 51.1404 200.095 51.0192C200.297 50.8979 200.469 50.7362 200.58 50.5138C200.701 50.3016 200.762 50.0489 200.762 49.7659C200.762 49.4829 200.701 49.2202 200.58 49.0079C200.459 48.7957 200.297 48.6238 200.095 48.5127C199.893 48.4015 199.65 48.3307 199.398 48.3307C199.145 48.3307 198.912 48.3914 198.71 48.5127C198.508 48.634 198.346 48.7957 198.225 49.0079C198.104 49.2202 198.043 49.4728 198.043 49.7659C198.043 50.059 198.104 50.3016 198.225 50.5138C198.346 50.7261 198.508 50.8979 198.71 51.0192C198.912 51.1404 199.145 51.2011 199.398 51.2011ZM200.782 51.6054V50.5037L200.833 49.7659L200.762 49.0281V46.4307H201.257V51.6155H200.782V51.6054Z" fill="white"/>
<path d="M205.027 51.6458C204.724 51.6458 204.441 51.6054 204.168 51.5144C203.895 51.4235 203.683 51.3224 203.531 51.191L203.754 50.7969C203.905 50.908 204.097 51.0091 204.33 51.09C204.562 51.1708 204.805 51.2112 205.067 51.2112C205.421 51.2112 205.664 51.1607 205.825 51.0495C205.987 50.9383 206.058 50.7969 206.058 50.6149C206.058 50.4835 206.018 50.3724 205.927 50.3016C205.836 50.2208 205.724 50.1702 205.593 50.1298C205.452 50.0894 205.3 50.0591 205.128 50.0287C204.956 49.9984 204.784 49.9681 204.613 49.9277C204.441 49.8872 204.289 49.8367 204.148 49.766C204.006 49.6952 203.895 49.5941 203.814 49.4729C203.733 49.3516 203.683 49.1798 203.683 48.9675C203.683 48.7553 203.743 48.5835 203.855 48.4319C203.966 48.2701 204.128 48.1489 204.35 48.0579C204.562 47.9669 204.835 47.9265 205.138 47.9265C205.371 47.9265 205.613 47.9568 205.856 48.0175C206.098 48.0781 206.29 48.159 206.442 48.2701L206.23 48.6643C206.068 48.5531 205.896 48.4723 205.704 48.4217C205.512 48.3712 205.33 48.351 205.148 48.351C204.815 48.351 204.572 48.4116 204.421 48.5228C204.269 48.634 204.188 48.7856 204.188 48.9574C204.188 49.0989 204.229 49.2101 204.32 49.2808C204.411 49.3617 204.522 49.4223 204.663 49.4628C204.805 49.5032 204.956 49.5436 205.128 49.5739C205.3 49.6042 205.472 49.6346 205.633 49.675C205.805 49.7154 205.957 49.766 206.098 49.8367C206.24 49.9075 206.351 49.9984 206.442 50.1197C206.533 50.241 206.573 50.4027 206.573 50.6048C206.573 50.8171 206.513 50.999 206.391 51.1607C206.27 51.3224 206.098 51.4336 205.876 51.5245C205.654 51.6155 205.371 51.6559 205.057 51.6559L205.027 51.6458Z" fill="white"/>
</svg>
