<svg width="51" height="57" viewBox="0 0 51 57" fill="none" xmlns="http://www.w3.org/2000/svg">
<path d="M26.5908 22.2488V24.5632C26.5908 25.4334 27.2987 26.1414 28.169 26.1414H28.4906V30.7313L26.7046 32.5173C26.548 32.6741 26.46 32.8866 26.46 33.1082V34.9606C26.46 35.4221 26.834 35.7962 27.2956 35.7962C27.7572 35.7962 28.1312 35.4221 28.1312 34.9606V33.4543L29.9172 31.6682C30.0739 31.5115 30.1619 31.299 30.1619 31.0774V26.1414H30.4835C31.3537 26.1414 32.0617 25.4334 32.0617 24.5632V22.2488C32.0617 21.3785 31.3537 20.6705 30.4835 20.6705H28.169C27.2988 20.6705 26.5908 21.3785 26.5908 22.2488ZM28.262 22.3417H30.3904V24.4701H28.262V22.3417Z" fill="white"/>
<path d="M16.3307 19.4913C15.4604 19.4913 14.7524 20.1993 14.7524 21.0696V23.8862C14.7524 24.7565 15.4604 25.4645 16.3307 25.4645H19.1473C20.0176 25.4645 20.7255 24.7566 20.7255 23.8862V21.0696C20.7255 20.1993 20.0176 19.4913 19.1473 19.4913H16.3307ZM19.0543 23.7933H16.4237V21.1627H19.0543V23.7933Z" fill="white"/>
<path d="M18.2759 13.9434V15.653C18.2759 16.5233 18.9838 17.2312 19.8541 17.2312H21.5637C22.434 17.2312 23.1419 16.5233 23.1419 15.653V13.9434C23.1419 13.0731 22.434 12.3652 21.5637 12.3652H19.8541C18.9838 12.3652 18.2759 13.0731 18.2759 13.9434ZM19.9471 14.0365H21.4707V15.56H19.9471V14.0365Z" fill="white"/>
<path d="M5.33343 30.3093C5.33343 29.439 4.62548 28.731 3.75509 28.731H2.04551C1.17523 28.731 0.467285 29.439 0.467285 30.3093V32.0189C0.467285 32.8891 1.17523 33.5971 2.04551 33.5971H3.75509C4.62537 33.5971 5.33343 32.8891 5.33343 32.0189V30.3093ZM3.66217 31.9258H2.13854V30.4023H3.66206L3.66217 31.9258Z" fill="white"/>
<path d="M9.44448 36.7949H6.64268C5.7724 36.7949 5.06445 37.5028 5.06445 38.3731V41.1748C5.06445 42.0451 5.7724 42.7531 6.64268 42.7531H9.44448C10.3148 42.7531 11.0227 42.0452 11.0227 41.1748V38.3731C11.0227 37.5029 10.3147 36.7949 9.44448 36.7949ZM9.35145 41.0819H6.73571V38.4661H9.35145V41.0819Z" fill="white"/>
<path d="M45.1002 23.2277C45.1002 22.4628 45.0527 21.689 44.9591 20.928C44.9027 20.4699 44.4845 20.1445 44.0278 20.2006C43.5697 20.2569 43.2441 20.6739 43.3003 21.132C43.3857 21.8256 43.4289 22.5308 43.4289 23.2277C43.4289 27.9387 41.5456 32.3194 38.1259 35.5628C35.7593 37.8074 33.8577 40.6082 32.5983 43.6905H31.6483V39.0121L35.3897 35.2707C35.5464 35.114 35.6344 34.9014 35.6344 34.6798V32.5744C36.3994 32.5658 37.0194 31.9415 37.0194 31.1744V29.3481C37.0194 28.5757 36.391 27.9475 35.6188 27.9475H33.7923C33.02 27.9475 32.3917 28.5758 32.3917 29.3481V31.1744C32.3917 31.9468 33.0201 32.5752 33.7923 32.5752H33.9631V34.3337L30.2217 38.0751C30.0651 38.2317 29.9771 38.4443 29.9771 38.6659V43.6905H28.1312V38.5216C28.1312 38.0601 27.7572 37.686 27.2956 37.686C26.834 37.686 26.46 38.0601 26.46 38.5216V43.6905H23.6955V33.3024H24.017C24.8873 33.3024 25.5953 32.5944 25.5953 31.7242V29.4098C25.5953 28.5395 24.8873 27.8316 24.017 27.8316H21.7027C20.8324 27.8316 20.1243 28.5395 20.1243 29.4098V31.7242C20.1243 32.5944 20.8323 33.3024 21.7027 33.3024H22.0242V43.6905H20.2545C19.2494 41.2549 17.8355 38.9896 16.0438 36.951C15.7391 36.6042 15.2112 36.5702 14.8646 36.875C14.5179 37.1797 14.4838 37.7076 14.7886 38.0542C16.3684 39.8517 17.6326 41.8357 18.5559 43.9627C17.5806 44.4219 16.9036 45.4139 16.9036 46.5615C16.9036 48.0978 18.1165 49.3559 19.635 49.429V50.6206C19.635 51.6781 20.3146 52.5793 21.2599 52.9119C21.5991 55.2213 23.5929 57 25.9949 57H26.8618C29.2639 57 31.2577 55.2213 31.5968 52.9119C32.5421 52.5793 33.2218 51.6782 33.2218 50.6206V49.429C34.7403 49.3559 35.9531 48.0978 35.9531 46.5615C35.9531 45.4124 35.2744 44.4194 34.2969 43.9609C35.4657 41.2397 37.1733 38.7696 39.2759 36.7753C43.0318 33.2131 45.1002 28.4018 45.1002 23.2277ZM34.0631 29.6189H35.3483V30.9041H34.0631V29.6189ZM21.7958 29.5029H23.9242V31.6314H21.7958V29.5029ZM26.862 55.3289H25.995C24.5666 55.3289 23.3597 54.3626 22.9937 53.0493H29.8634C29.4972 54.3626 28.2903 55.3289 26.862 55.3289ZM33.0821 47.7614H30.3269C29.8653 47.7614 29.4913 48.1356 29.4913 48.5971C29.4913 49.0585 29.8653 49.4327 30.3269 49.4327H31.5505V50.6207C31.5505 51.0383 31.2107 51.378 30.7931 51.378H22.0636C21.646 51.378 21.3062 51.0383 21.3062 50.6207V49.4327H26.7657C27.2273 49.4327 27.6013 49.0585 27.6013 48.5971C27.6013 48.1356 27.2273 47.7614 26.7657 47.7614H19.7746C19.113 47.7614 18.5747 47.2232 18.5747 46.5616C18.5747 45.9276 19.0693 45.4083 19.6927 45.366C19.7028 45.366 19.7132 45.3657 19.7233 45.3654C19.7424 45.3647 19.7613 45.3635 19.7802 45.3623L19.7856 45.362H33.0818L33.0748 45.3623C33.093 45.3635 33.1111 45.3646 33.1294 45.3654C33.1403 45.3659 33.1511 45.366 33.1619 45.3661C33.7861 45.4075 34.2817 45.9273 34.2817 46.5618C34.282 47.2233 33.7437 47.7614 33.0821 47.7614Z" fill="white"/>
<path d="M9.42798 23.2279C9.42798 19.6443 10.5386 16.2127 12.6398 13.3039C12.9101 12.9299 12.8259 12.4074 12.4517 12.1373C12.0777 11.867 11.5553 11.9512 11.2851 12.3253C8.97674 15.5207 7.75672 19.2908 7.75684 23.2279C7.75684 27.7207 9.37718 32.063 12.3194 35.4546C12.4846 35.6452 12.7171 35.7426 12.951 35.7426C13.1451 35.7426 13.3401 35.6753 13.4982 35.5383C13.8468 35.2359 13.8842 34.7081 13.5818 34.3595C10.9031 31.2717 9.42798 27.3184 9.42798 23.2279Z" fill="white"/>
<path d="M22.0721 6.7675C22.1397 6.7675 22.2087 6.75914 22.2773 6.74187C23.642 6.39726 25.0548 6.22133 26.4671 6.22724C27.3362 6.22924 28.2094 6.29743 29.0623 6.43001C29.5192 6.50088 29.9455 6.18869 30.0163 5.73265C30.0872 5.27662 29.775 4.84945 29.319 4.77859C28.3826 4.63297 27.4243 4.5581 26.4708 4.55598C24.9134 4.54941 23.3676 4.74282 21.8681 5.12142C21.4206 5.2344 21.1495 5.68876 21.2624 6.13621C21.3581 6.51503 21.6984 6.7675 22.0721 6.7675Z" fill="white"/>
<path d="M14.7872 11.4466H18.0447C18.915 11.4466 19.6229 10.7386 19.6229 9.86836V6.61074C19.6229 5.74047 18.915 5.03241 18.0447 5.03241H14.7872C13.9169 5.03241 13.209 5.74035 13.209 6.61074V9.86836C13.209 10.7385 13.917 11.4466 14.7872 11.4466ZM14.8802 6.70378H17.9517V9.77533H14.8802V6.70378Z" fill="white"/>
<path d="M44.6302 39.6839H41.023C40.1528 39.6839 39.4448 40.3919 39.4448 41.2621V44.8693C39.4448 45.7395 40.1528 46.4476 41.023 46.4476H44.6302C45.5005 46.4476 46.2084 45.7397 46.2084 44.8693V41.2621C46.2084 40.392 45.5005 39.6839 44.6302 39.6839ZM44.5371 44.7763H41.1161V41.3552H44.5371V44.7763Z" fill="white"/>
<path d="M49.0333 32.5978H46.9112C46.041 32.5978 45.333 33.3057 45.333 34.176V36.2979C45.333 37.1682 46.041 37.8762 46.9112 37.8762H49.0333C49.9036 37.8762 50.6115 37.1682 50.6115 36.2979V34.176C50.6115 33.3058 49.9034 32.5978 49.0333 32.5978ZM48.9402 36.205H47.0043V34.2691H48.9402V36.205Z" fill="white"/>
<path d="M7.9293 5.18037H9.89403C10.7643 5.18037 11.4723 4.47242 11.4723 3.60203V1.63741C11.4723 0.767133 10.7643 0.0591888 9.89403 0.0591888H7.9293C7.05902 0.0591888 6.35107 0.767133 6.35107 1.63741V3.60214C6.35107 4.47242 7.05913 5.18037 7.9293 5.18037ZM8.02233 1.73045H9.80099V3.50911H8.02233V1.73045Z" fill="white"/>
<path d="M2.80088 11.9067H4.33053C5.20081 11.9067 5.90886 11.1988 5.90886 10.3285V8.79887C5.90886 7.92859 5.20092 7.22064 4.33053 7.22064H2.80088C1.9306 7.22064 1.22266 7.92859 1.22266 8.79887V10.3285C1.22266 11.1988 1.9306 11.9067 2.80088 11.9067ZM2.89391 8.8919H4.2376V10.2356H2.89391V8.8919Z" fill="white"/>
<path d="M44.7343 5.22749H38.1789C37.7173 5.22749 37.3433 5.60163 37.3433 6.06312V12.6186C37.3433 13.0801 37.7173 13.4542 38.1789 13.4542H44.7343C45.1959 13.4542 45.57 13.0801 45.57 12.6186V6.06312C45.57 5.60163 45.1959 5.22749 44.7343 5.22749ZM43.8987 11.7829H39.0145V6.89875H43.8987V11.7829Z" fill="white"/>
<path d="M49.9629 10.1765C50.4245 10.1765 50.7985 9.80239 50.7985 9.34091C50.7985 8.87941 50.4245 8.50528 49.9629 8.50528H48.9124V6.1927H49.9629C50.4245 6.1927 50.7985 5.81856 50.7985 5.35707C50.7985 4.89558 50.4245 4.52145 49.9629 4.52145H48.9124V4.48379C48.9124 3.05085 47.7467 1.88509 46.3137 1.88509H46.276V0.834652C46.276 0.373162 45.9019 -0.000976562 45.4403 -0.000976562C44.9787 -0.000976562 44.6047 0.373162 44.6047 0.834652V1.88498H42.2923V0.834652C42.2923 0.373162 41.9182 -0.000976562 41.4566 -0.000976562C40.995 -0.000976562 40.621 0.373162 40.621 0.834652V1.88498H38.3084V0.834652C38.3084 0.373162 37.9344 -0.000976562 37.4728 -0.000976562C37.0112 -0.000976562 36.6372 0.373162 36.6372 0.834652V1.88498H36.5994C35.1665 1.88498 34.0007 3.05074 34.0007 4.48367V4.52145H32.9504C32.4888 4.52145 32.1147 4.89558 32.1147 5.35707C32.1147 5.81856 32.4888 6.1927 32.9504 6.1927H34.0007V8.50517H32.9504C32.4888 8.50517 32.1147 8.8793 32.1147 9.34079C32.1147 9.80228 32.4888 10.1764 32.9504 10.1764H34.0007V12.489H32.9504C32.4888 12.489 32.1147 12.8631 32.1147 13.3246C32.1147 13.7861 32.4888 14.1603 32.9504 14.1603H34.0007V14.1979C34.0007 15.6308 35.1665 16.7966 36.5994 16.7966H36.6372V17.8469C36.6372 18.3084 37.0112 18.6826 37.4728 18.6826C37.9344 18.6826 38.3084 18.3084 38.3084 17.8469V16.7966H40.621V17.8469C40.621 18.3084 40.995 18.6826 41.4566 18.6826C41.9182 18.6826 42.2923 18.3084 42.2923 17.8469V16.7966H44.6048V17.8469C44.6048 18.3084 44.9789 18.6826 45.4405 18.6826C45.9021 18.6826 46.2761 18.3084 46.2761 17.8469V16.7966H46.3137C47.7467 16.7966 48.9124 15.6308 48.9124 14.1979V14.1601H49.9629C50.4245 14.1601 50.7985 13.786 50.7985 13.3245C50.7985 12.863 50.4245 12.4889 49.9629 12.4889H48.9124V10.1765H49.9629ZM47.2412 14.198C47.2412 14.7094 46.8251 15.1255 46.3137 15.1255H36.5995C36.0881 15.1255 35.6721 14.7094 35.6721 14.198V4.48367C35.6721 3.97227 36.0881 3.55624 36.5995 3.55624H46.3137C46.8251 3.55624 47.2412 3.97227 47.2412 4.48367V14.198Z" fill="white"/>
</svg>
