<svg width="33" height="42" viewBox="0 0 33 42" fill="none" xmlns="http://www.w3.org/2000/svg">
<path fill-rule="evenodd" clip-rule="evenodd" d="M12.6436 33.6407H14.035C14.4176 33.6407 14.7306 33.9459 14.7306 34.3189V41.3218C14.7306 41.6948 14.4176 42 14.035 42H0.695662C0.313048 42 0 41.6948 0 41.3218V34.3189C0 33.9459 0.313048 33.6407 0.695662 33.6407H2.08698V32.7759C2.08698 31.216 3.39135 29.9443 4.99137 29.9443H5.28702V8.10497C3.8957 7.37586 2.93917 5.95156 2.93917 4.30682C2.93917 1.93298 4.9218 0 7.35661 0C9.79143 0 11.7741 1.93298 11.7741 4.30682C11.7741 5.95156 10.8175 7.39281 9.4262 8.10497V8.59669C14.5567 6.79936 16.9741 7.49455 19.5828 8.37626C22.1568 9.25797 24.9568 10.3601 31.183 9.20711C31.6873 9.12233 32.1917 9.35971 32.4352 9.80057C32.6787 10.2414 32.6091 10.784 32.2613 11.1401C30.5569 12.9205 27.2525 16.3625 26.0525 17.6173L32.6613 24.2132C32.9743 24.5184 33.0787 24.9762 32.9395 25.3831C32.8004 25.7901 32.4352 26.0953 32.0004 26.1631C25.9308 27.1635 22.122 26.1631 18.7654 25.4001C15.7393 24.7049 13.1132 24.1962 9.39142 25.7731V29.9443H9.68708C11.2871 29.9443 12.5915 31.216 12.5915 32.7759V33.6407H12.6436ZM3.4957 33.6407H11.2697V32.7759C11.2697 31.962 10.5914 31.3008 9.75664 31.3008H5.02615C4.19136 31.3008 3.51309 31.962 3.51309 32.7759V33.6407H3.4957ZM6.69574 29.9443H8.05227V8.54582C7.82618 8.57973 7.60009 8.59669 7.374 8.59669C7.14791 8.59669 6.92183 8.57973 6.69574 8.54582V29.9443ZM9.4436 24.3149C13.2176 22.8567 15.9654 23.3654 19.1307 24.0945C22.2611 24.8236 25.8264 25.7562 31.4265 24.8914L24.6264 18.109C24.3655 17.8547 24.3655 17.4308 24.6264 17.1764C24.6264 17.1764 28.6264 12.9883 30.8699 10.6484C24.6786 11.6827 21.809 10.5466 19.1655 9.64796C16.6959 8.81712 14.435 8.2067 9.46099 10.0379V24.3149H9.4436ZM13.6002 17.7021C13.3219 17.4308 13.3219 17.0069 13.6002 16.7356C13.8784 16.4643 14.3132 16.4643 14.5915 16.7356L16.0002 18.109L20.0872 14.4974C20.3655 14.243 20.8176 14.26 21.0611 14.5482C21.322 14.8195 21.3046 15.2604 21.009 15.4978L16.435 19.5503C16.1567 19.7876 15.7393 19.7876 15.4785 19.5333L13.6002 17.7021ZM13.3567 34.9972H1.40871V40.6435H13.3567V34.9972ZM7.374 1.33953C5.70442 1.33953 4.34788 2.66209 4.34788 4.28987C4.34788 5.91764 5.70442 7.24021 7.374 7.24021C9.04359 7.24021 10.4001 5.91764 10.4001 4.28987C10.4001 2.66209 9.04359 1.33953 7.374 1.33953ZM7.374 1.89907C8.73054 1.89907 9.82621 2.9673 9.82621 4.28987C9.82621 5.61244 8.73054 6.68066 7.374 6.68066C6.01747 6.68066 4.9218 5.61244 4.9218 4.28987C4.9218 2.9673 6.01747 1.89907 7.374 1.89907ZM7.374 3.25555C6.78269 3.25555 6.31312 3.71336 6.31312 4.28987C6.31312 4.86637 6.78269 5.32418 7.374 5.32418C7.96532 5.32418 8.43489 4.86637 8.43489 4.28987C8.43489 3.71336 7.96532 3.25555 7.374 3.25555Z" fill="#6C696E"/>
</svg>
