<svg width="69" height="58" viewBox="0 0 69 58" fill="none" xmlns="http://www.w3.org/2000/svg">
<path fill-rule="evenodd" clip-rule="evenodd" d="M68.38 24.7835L66.8682 23.4464C66.4418 23.0704 65.7828 23.1131 65.3952 23.5472C65.0076 23.989 65.0463 24.6478 65.4727 25.0198L67.0232 26.3607C67.4555 26.7461 68.1137 26.7087 68.4962 26.2599C68.8839 25.8298 68.8451 25.1595 68.38 24.7835ZM66.1703 11.173C66.4029 11.173 66.6742 11.0915 66.868 10.925L68.3798 9.5841C68.8449 9.20811 68.8837 8.54171 68.4961 8.10752C68.1085 7.67728 67.4495 7.63473 67.0231 8.01055L65.4726 9.34762C64.7791 9.95218 65.189 11.173 66.1703 11.173ZM66.1703 18.2378H67.9534C68.5348 18.2378 69 17.765 69 17.1915C69 16.6062 68.5348 16.1489 67.9534 16.1489H66.1703C65.5889 16.1489 65.1237 16.6062 65.1237 17.1915C65.1237 17.765 65.5889 18.2378 66.1703 18.2378ZM31.3214 54.4617H35.3529C35.9343 54.4617 36.3995 54.0007 36.3995 53.4154C36.3995 52.8419 35.9343 52.3691 35.3529 52.3691H31.3214C30.7399 52.3691 30.2748 52.8419 30.2748 53.4154C30.2748 54.0005 30.7399 54.4617 31.3214 54.4617ZM61.0922 11.2853C60.5108 11.6766 59.8518 12.0371 59.2316 12.3859V21.9853C59.8518 22.3341 60.5108 22.7101 61.0922 23.0859V11.2853ZM50.5872 21.0359C50.0445 20.8964 49.5018 20.7724 48.9203 20.66L48.2226 25.5663C48.1451 26.2212 47.835 26.7639 47.2923 27.1514C46.7884 27.5429 46.1294 27.6979 45.5092 27.6009L42.6018 27.1242C42.3693 27.0816 42.1754 27.0002 42.0204 26.8607C40.121 25.0625 38.3765 24.0587 36.6322 23.7254C36.3996 23.7137 36.167 23.6867 35.9345 23.6285C32.1355 23.3067 27.6777 25.6476 23.7626 27.7132C23.2199 28.0155 22.6385 28.31 22.0958 28.5891C21.7469 28.7711 21.243 29.1587 21.0104 30.3562L18.9172 41.533C18.8557 42.1951 19.946 43.0703 20.584 41.3082L23.6465 32.5186C23.7628 32.1969 24.0341 31.9451 24.383 31.8636L28.4532 30.7358C29.2435 30.5237 30.0219 31.2781 29.6936 32.1117L23.4139 48.8458H36.0121L39.6948 31.1506C39.7723 30.6506 40.2375 30.3018 40.7414 30.3135L47.1374 30.5538C48.4166 30.608 49.8896 29.55 50.0448 28.4611C50.2774 26.8335 50.3549 25.2716 50.4324 23.6013C50.5096 22.7644 50.5484 21.9002 50.5872 21.0359ZM52.1378 28.4768C52.9906 28.659 53.5721 29.3953 53.5721 30.2749V48.846H38.1439L41.5552 32.449L47.0597 32.6428C49.1529 32.7281 51.7502 31.081 52.0991 28.7713C52.1378 28.6705 52.1378 28.5737 52.1378 28.4768ZM58.5726 50.935C57.7974 53.8339 55.7429 55.9072 53.4945 55.9072H13.1411C10.8928 55.9072 8.87702 53.8338 8.10176 50.935H58.5726ZM3.295 55.9073C2.63603 55.9073 2.09335 55.3648 2.09335 54.6943V16.4939C2.09335 15.8273 2.63603 15.2963 3.295 15.2963H6.16362L6.47372 16.2574C6.86135 17.4162 7.90795 18.1835 9.14852 18.1835H12.9087C14.1491 18.1835 15.1958 17.4162 15.5833 16.2574L15.8934 15.2963H18.7619C19.4208 15.2963 19.9635 15.8273 19.9635 16.4939V26.3453H14.9242C12.7535 26.3453 10.9702 28.1009 10.9702 30.2751V48.8461H6.82258C6.15476 48.8461 5.70178 49.4838 5.77599 50.032C6.12485 52.427 7.09392 54.4888 8.48939 55.9072H3.295V55.9073ZM8.3731 15.2963L8.45063 15.6181C8.56691 15.9126 8.79949 16.0909 9.14836 16.0909H12.9085C13.4822 16.0909 13.5843 15.679 13.7225 15.2963H8.3731ZM16.8237 41.3511C16.7478 42.9604 17.9395 44.4281 19.6147 44.4281C20.3899 44.4281 21.8241 44.122 22.5608 42.0059L25.4682 33.7281L27.0187 33.2978L21.1653 48.8461H13.0636V30.2751C13.0636 29.2558 13.9164 28.4342 14.9242 28.4342H19.4596C19.2658 28.8799 19.072 29.3836 18.9557 29.9688L16.8237 41.2231V41.3511ZM36.9035 21.6521C36.7097 21.621 36.4771 21.5938 36.2446 21.5668C34.6553 21.1908 33.4535 19.7414 33.4535 18.013C33.4535 15.9939 35.0815 14.3623 37.0973 14.3623C39.0743 14.3623 40.7412 15.9939 40.7412 18.013C40.7412 20.0205 39.0744 21.6638 37.0973 21.6638C37.0198 21.6638 36.9423 21.6638 36.9035 21.6521ZM12.0557 13.2075V5.00314C12.0557 3.39875 13.3737 2.08873 15.0019 2.08873H45.1991C46.8271 2.08873 48.1065 3.39859 48.1065 5.00314V13.878C47.5638 13.9748 46.9824 14.0717 46.4009 14.1687C45.1993 14.3354 44.3077 15.4088 44.3077 16.6916V17.6799C44.3077 18.9627 45.1993 20.0361 46.4009 20.2144C46.556 20.2299 46.711 20.2569 46.8661 20.2841L46.1683 25.2873C46.1582 25.4333 46.0285 25.5649 45.8195 25.5237L43.2224 25.1052C42.1758 24.1596 41.1679 23.4078 40.1599 22.8496C41.7492 21.8303 42.8347 20.0361 42.8347 18.013C42.8347 14.8391 40.2376 12.2734 37.0977 12.2734C33.919 12.2734 31.3606 14.8389 31.3606 18.013C31.3606 19.4354 31.8645 20.7452 32.7561 21.7606C29.3448 22.4039 25.9336 24.2137 22.7937 25.8569C22.5611 25.9964 22.2898 26.1359 22.0184 26.2599V16.4937C22.0184 14.6839 20.5454 13.2073 18.7622 13.2073L12.0557 13.2075ZM57.1384 20.9972C54.1147 19.6989 50.5873 18.7263 46.7109 18.141C46.517 18.1139 46.4008 17.9162 46.4008 17.6798V16.6915C46.4008 16.4551 46.517 16.2574 46.7109 16.2302C50.5873 15.6605 54.1149 14.6839 57.1384 13.3895V20.9972ZM63.1856 9.25066V25.1323C63.1856 25.9967 62.1822 26.4994 61.48 25.9423C59.2705 24.1596 56.2468 22.6675 52.6805 21.594C52.5066 23.1938 52.5098 24.7572 52.3704 26.388C54.231 26.6943 55.6654 28.3219 55.6654 30.2751V48.8461H59.8132C60.4723 48.8461 60.9452 49.3733 60.8598 50.032C60.2396 54.64 57.1384 58 53.4945 58H3.295C1.51175 58 0 56.5234 0 54.6943V16.4939C0 14.684 1.51175 13.2075 3.295 13.2075H9.96238V5.00314C9.96238 2.24374 12.2106 0 15.0017 0H45.199C47.9513 0 50.1995 2.2439 50.1995 5.00314V13.4322C54.8512 12.3432 58.8052 10.6148 61.4798 8.42893C62.1456 7.8867 63.1856 8.34573 63.1856 9.25066ZM25.6231 5.16986C25.6231 5.73945 26.0882 6.21224 26.6697 6.21224H33.5308C34.1123 6.21224 34.5774 5.73945 34.5774 5.16986C34.5774 4.5846 34.1123 4.12351 33.5308 4.12351H26.6697C26.0882 4.12351 25.6231 4.5846 25.6231 5.16986Z" fill="white"/>
</svg>
