<svg width="57" height="56" viewBox="0 0 57 56" fill="none" xmlns="http://www.w3.org/2000/svg">
<path d="M18.6762 13.245C18.6125 13.4818 18.5962 13.7289 18.6282 13.972C18.6602 14.2151 18.7399 14.4495 18.8626 14.6618L20.3912 17.253C20.5144 17.4652 20.6782 17.651 20.8734 17.7998C21.0685 17.9485 21.2911 18.0573 21.5284 18.1198C21.7652 18.1835 22.0122 18.1998 22.2553 18.1678C22.4984 18.1358 22.7329 18.0561 22.9451 17.9334L23.5137 17.6445C24.1255 18.1074 24.7924 18.4925 25.4991 18.7909V19.4154C25.4991 19.9099 25.6955 20.384 26.0451 20.7336C26.3947 21.0832 26.8688 21.2796 27.3633 21.2796H30.3553C30.8497 21.2796 31.3238 21.0832 31.6734 20.7336C32.023 20.384 32.2194 19.9099 32.2194 19.4154V18.7723C32.9252 18.4738 33.5894 18.0853 34.1955 17.6165L34.7454 17.9334C35.1732 18.1802 35.6814 18.2471 36.1585 18.1196C36.6355 17.992 37.0425 17.6803 37.29 17.253L38.7814 14.6618C39.0281 14.234 39.0951 13.7258 38.9675 13.2487C38.8399 12.7717 38.5283 12.3647 38.1009 12.1172L37.5603 11.8282C37.6164 11.433 37.6445 11.0343 37.6442 10.6352C37.6448 10.2453 37.6167 9.85584 37.5603 9.47004L38.1009 9.16245C38.5283 8.91493 38.8399 8.50797 38.9675 8.03089C39.0951 7.55381 39.0281 7.04561 38.7814 6.61784L37.29 4.02663C37.0425 3.5993 36.6355 3.28764 36.1585 3.16007C35.6814 3.0325 35.1732 3.09945 34.7454 3.3462L34.1675 3.63515C33.558 3.16893 32.8906 2.78357 32.1822 2.48868V1.86418C32.1822 1.36977 31.9858 0.895608 31.6362 0.546006C31.2866 0.196404 30.8124 0 30.318 0H27.326C26.8316 0 26.3574 0.196404 26.0078 0.546006C25.6582 0.895608 25.4618 1.36977 25.4618 1.86418V2.498C24.7597 2.80371 24.0964 3.19169 23.4858 3.6538L22.9451 3.3462C22.7329 3.22256 22.4984 3.14207 22.255 3.10936C22.0116 3.07665 21.7641 3.09236 21.5268 3.15559C21.2894 3.21882 21.0669 3.32832 20.8721 3.4778C20.6772 3.62728 20.5138 3.8138 20.3912 4.02663L18.8999 6.60852C18.7771 6.82081 18.6975 7.05522 18.6655 7.29834C18.6335 7.54145 18.6498 7.78849 18.7135 8.0253C18.776 8.26257 18.8848 8.48515 19.0335 8.68029C19.1823 8.87543 19.3681 9.03928 19.5803 9.16245L20.1209 9.44208C20.0701 9.83783 20.0421 10.2362 20.037 10.6352C20.0361 11.0282 20.0642 11.4207 20.1209 11.8096L19.5803 12.1172C19.3621 12.2355 19.1697 12.3962 19.0145 12.5899C18.8592 12.7836 18.7442 13.0063 18.6762 13.245ZM21.8639 10.6352C21.8671 10.3234 21.8889 10.0122 21.9292 9.70306C21.9771 9.33484 21.914 8.96068 21.748 8.62854C21.5819 8.29641 21.3204 8.02144 20.9971 7.83888L20.4565 7.53129L21.9758 4.95872L22.5164 5.27563C22.8413 5.46336 23.2153 5.54867 23.5895 5.5204C23.9636 5.49213 24.3206 5.35159 24.6136 5.11718C25.082 4.7387 25.5993 4.42518 26.1515 4.18509C26.4984 4.04694 26.7958 3.80783 27.0052 3.49873C27.2146 3.18962 27.3263 2.82475 27.326 2.4514V1.86418H30.318V2.48868C30.3176 2.86204 30.4294 3.2269 30.6388 3.53601C30.8482 3.84512 31.1456 4.08423 31.4924 4.22237C32.0447 4.46246 32.562 4.77599 33.0304 5.15446C33.3234 5.38888 33.6803 5.52941 34.0545 5.55768C34.4287 5.58595 34.8027 5.50065 35.1276 5.31292L35.6775 4.99601L37.1688 7.54993L36.6282 7.85752C36.3049 8.04008 36.0434 8.31505 35.8773 8.64718C35.7113 8.97932 35.6482 9.35348 35.6961 9.7217C35.7364 10.0308 35.7582 10.3421 35.7614 10.6538C35.7582 10.9655 35.7364 11.2768 35.6961 11.5859C35.6482 11.9541 35.7113 12.3283 35.8773 12.6604C36.0434 12.9925 36.3049 13.2675 36.6282 13.4501L37.1688 13.7577L35.6775 16.3489L35.1276 16.032C34.8027 15.8442 34.4287 15.7589 34.0545 15.7872C33.6803 15.8155 33.3234 15.956 33.0304 16.1904C32.5596 16.5655 32.0428 16.8788 31.4924 17.1225C31.1456 17.2606 30.8482 17.4998 30.6388 17.8089C30.4294 18.118 30.3176 18.4828 30.318 18.8562V19.4807H27.326V18.8562C27.3263 18.4828 27.2146 18.118 27.0052 17.8089C26.7958 17.4998 26.4984 17.2606 26.1515 17.1225C25.6012 16.8788 25.0843 16.5655 24.6136 16.1904C24.2769 15.9311 23.8641 15.7902 23.4392 15.7896C23.1126 15.7874 22.7912 15.8709 22.5071 16.032L21.9664 16.3489L20.4658 13.7577L21.0064 13.4501C21.3298 13.2675 21.5912 12.9925 21.7573 12.6604C21.9234 12.3283 21.9865 11.9541 21.9385 11.5859C21.8944 11.2708 21.8695 10.9533 21.8639 10.6352Z" fill="white"/>
<path d="M28.7801 15.2583C29.7018 15.2583 30.6029 14.985 31.3693 14.4729C32.1357 13.9608 32.733 13.2329 33.0858 12.3813C33.4385 11.5298 33.5308 10.5927 33.351 9.68865C33.1712 8.78461 32.7273 7.9542 32.0755 7.30243C31.4237 6.65065 30.5933 6.20678 29.6893 6.02696C28.7853 5.84714 27.8482 5.93943 26.9966 6.29217C26.145 6.64491 25.4172 7.24225 24.9051 8.00865C24.393 8.77506 24.1196 9.67611 24.1196 10.5979C24.1196 11.8339 24.6106 13.0193 25.4846 13.8933C26.3586 14.7673 27.5441 15.2583 28.7801 15.2583ZM28.7801 7.80159C29.3331 7.80159 29.8738 7.96559 30.3336 8.27285C30.7934 8.58011 31.1519 9.01682 31.3635 9.52778C31.5751 10.0387 31.6305 10.601 31.5226 11.1434C31.4147 11.6858 31.1484 12.1841 30.7573 12.5751C30.3663 12.9662 29.868 13.2325 29.3256 13.3404C28.7832 13.4483 28.2209 13.3929 27.71 13.1813C27.199 12.9696 26.7623 12.6112 26.4551 12.1514C26.1478 11.6915 25.9838 11.1509 25.9838 10.5979C25.9838 9.85625 26.2784 9.145 26.8028 8.6206C27.3272 8.0962 28.0385 7.80159 28.7801 7.80159Z" fill="white"/>
<path d="M50.4326 51.0506C50.5585 49.3519 51.1881 47.7293 52.2408 46.3901C53.4543 44.9599 54.0596 43.1114 53.9272 41.2404C53.7948 39.3694 52.9352 37.6246 51.5324 36.3795C50.7366 35.6724 49.8006 35.1409 48.7857 34.8197C47.7707 34.4985 46.6994 34.3948 45.6416 34.5153C43.9644 34.6824 42.3947 35.4178 41.1928 36.5994C39.9909 37.781 39.2288 39.3379 39.0331 41.012C38.9279 41.99 39.026 42.9792 39.3211 43.9175C39.6163 44.8558 40.1021 45.723 40.7481 46.4647C41.7945 47.832 42.408 49.481 42.5098 51.1997V52.0573C42.5098 53.1029 42.9252 54.1058 43.6646 54.8452C44.404 55.5846 45.4069 56 46.4525 56C47.4982 56 48.5011 55.5846 49.2405 54.8452C49.9799 54.1058 50.3953 53.1029 50.3953 52.0573L50.4326 51.0506ZM48.5684 52.0573C48.5684 52.6085 48.3494 53.1372 47.9596 53.527C47.5698 53.9168 47.0411 54.1358 46.4898 54.1358C45.9386 54.1358 45.4099 53.9168 45.0201 53.527C44.6303 53.1372 44.4113 52.6085 44.4113 52.0573V51.265H48.5684V52.0573ZM48.7921 49.4008H47.4219V46.0546L49.0158 44.47L47.6922 43.1465L46.4898 44.3582L45.2874 43.1465L43.9639 44.47L45.5577 46.0546V49.4008H44.1689C43.8276 47.8882 43.1525 46.471 42.1929 45.253C41.7098 44.7044 41.3454 44.0619 41.1224 43.3657C40.8995 42.6696 40.8228 41.9349 40.8973 41.2077C41.0427 39.9544 41.6133 38.7888 42.5139 37.9051C43.4146 37.0215 44.5908 36.4731 45.8467 36.3515C46.0608 36.3372 46.2757 36.3372 46.4898 36.3515C47.8923 36.3476 49.2467 36.8622 50.2928 37.7963C50.8547 38.2981 51.3045 38.9128 51.6129 39.6001C51.9212 40.2875 52.0812 41.0322 52.0824 41.7856C52.0856 43.0441 51.6356 44.2617 50.8147 45.2157C49.8468 46.4487 49.1569 47.8763 48.7921 49.4008Z" fill="white"/>
<path d="M5.35666 55.6551C5.53028 55.8273 5.7646 55.9244 6.00913 55.9254H16.6629C16.9101 55.9254 17.1472 55.8272 17.322 55.6524C17.4968 55.4776 17.595 55.2405 17.595 54.9933V38.2157C17.595 37.9685 17.4968 37.7314 17.322 37.5566C17.1472 37.3818 16.9101 37.2836 16.6629 37.2836H1.74947C1.50227 37.2836 1.26519 37.3818 1.09039 37.5566C0.915585 37.7314 0.817383 37.9685 0.817383 38.2157V50.7989C0.817895 50.9222 0.842874 51.0442 0.890874 51.1578C0.938873 51.2714 1.00894 51.3744 1.09701 51.4607L5.35666 55.6551ZM5.47784 53.1292L3.61365 51.3116L5.89728 50.8549L5.47784 53.1292ZM2.68156 39.1478H15.7308V54.0612H7.14628L7.98516 49.8482C8.01372 49.6988 8.00529 49.5447 7.96059 49.3993C7.9159 49.2539 7.8363 49.1216 7.72874 49.0141C7.62118 48.9065 7.48893 48.8269 7.34354 48.7822C7.19814 48.7375 7.04402 48.7291 6.89461 48.7577L2.68156 49.5965V39.1478Z" fill="white"/>
<path d="M4.54565 41.012H13.8666V42.8762H4.54565V41.012Z" fill="white"/>
<path d="M4.54565 45.6724H13.8666V47.5366H4.54565V45.6724Z" fill="white"/>
<path d="M10.1382 50.3329H13.8665V52.1971H10.1382V50.3329Z" fill="white"/>
<path d="M42.37 9.04128L41.2888 10.5513C43.6696 12.2585 45.6742 14.4367 47.1782 16.9508C48.6822 19.465 49.6535 22.2613 50.0318 25.1664H47.422C47.2534 25.1669 47.088 25.2131 46.9436 25.3001C46.7991 25.3871 46.681 25.5116 46.6017 25.6604C46.5269 25.8062 46.4918 25.9691 46.5 26.1327C46.5082 26.2964 46.5593 26.455 46.6483 26.5925L50.3767 32.1851C50.459 32.3168 50.5728 32.4258 50.7079 32.5023C50.843 32.5788 50.9951 32.6204 51.1503 32.6232C51.303 32.6234 51.4534 32.5861 51.5883 32.5146C51.7232 32.4431 51.8385 32.3395 51.924 32.213L55.6523 26.6205C55.7413 26.4829 55.7925 26.3243 55.8007 26.1607C55.8089 25.9971 55.7738 25.8342 55.6989 25.6884C55.6235 25.5344 55.507 25.4041 55.3623 25.312C55.2175 25.2199 55.0502 25.1695 54.8787 25.1664H51.9053C51.5232 21.9638 50.4779 18.8758 48.8362 16.0995C47.1944 13.3232 44.9923 10.9194 42.37 9.04128ZM51.1503 30.0133L49.165 27.0306H53.1357L51.1503 30.0133Z" fill="white"/>
<path d="M24.8002 54.6112C24.8877 54.7135 24.9963 54.7956 25.1186 54.852C25.2409 54.9083 25.3739 54.9374 25.5086 54.9374C25.5735 54.9465 25.6394 54.9465 25.7043 54.9374C25.8689 54.9019 26.0208 54.8226 26.1439 54.7077C26.267 54.5928 26.3566 54.4467 26.4034 54.285L27.2609 51.237C27.7829 51.237 28.2862 51.2929 28.7802 51.2929C32.1329 51.3018 35.4473 50.5798 38.4926 49.1771L37.7096 47.4807C34.9084 48.7632 31.861 49.4185 28.7802 49.4008H27.7829L28.4353 47.1079C28.4825 46.9443 28.4839 46.771 28.4396 46.6067C28.3952 46.4424 28.3067 46.2934 28.1837 46.1758C28.0621 46.0592 27.9113 45.9777 27.7472 45.9399C27.5831 45.9022 27.4118 45.9096 27.2516 45.9614L20.8574 48.0027C20.7105 48.0492 20.5774 48.1315 20.47 48.2421C20.3626 48.3527 20.2844 48.4882 20.2422 48.6365C20.2018 48.7845 20.1985 48.9402 20.2326 49.0898C20.2667 49.2394 20.3373 49.3782 20.438 49.494L24.8002 54.6112ZM26.1703 48.2543L25.0518 52.0759L22.7589 49.4008L26.1703 48.2543Z" fill="white"/>
<path d="M13.5217 17.3928C13.6857 17.5244 13.8894 17.5967 14.0996 17.5979C14.2315 17.5973 14.3618 17.5687 14.4818 17.514C14.6356 17.4454 14.768 17.3363 14.8649 17.1985C14.9617 17.0606 15.0194 16.8991 15.0317 16.731L15.535 10.0293C15.5462 9.87689 15.5198 9.72406 15.458 9.58428C15.3963 9.4445 15.3011 9.32204 15.1808 9.2277C15.0598 9.13342 14.9173 9.07047 14.7661 9.04446C14.6149 9.01844 14.4596 9.03016 14.314 9.07857L7.9385 11.1851C7.7766 11.237 7.63196 11.3321 7.52024 11.4603C7.40852 11.5884 7.33398 11.7447 7.30468 11.9121C7.26838 12.0842 7.2815 12.263 7.34253 12.428C7.40355 12.5929 7.50999 12.7372 7.64955 12.8442L9.80268 14.5313C6.99132 18.4457 5.47867 23.1434 5.47778 27.9627C5.47827 30.2648 5.81746 32.5543 6.48444 34.7577L8.27406 34.217C7.32008 31.0958 7.09458 27.7974 7.61488 24.5753C8.13519 21.3533 9.38745 18.2935 11.2754 15.6312L13.5217 17.3928ZM13.5217 11.2876L13.2514 14.8575L10.1382 12.4061L13.5217 11.2876Z" fill="white"/>
<path d="M54.8787 40.0799H56.7428V41.9441H54.8787V40.0799Z" fill="white"/>
<path d="M52.6191 36.3553L53.9373 35.0371L55.2555 36.3553L53.9373 37.6734L52.6191 36.3553Z" fill="white"/>
<path d="M36.2368 40.0799H38.101V41.9441H36.2368V40.0799Z" fill="white"/>
<path d="M38.636 35.4213L39.9542 34.1031L41.2723 35.4213L39.9542 36.7395L38.636 35.4213Z" fill="white"/>
<path d="M45.5576 31.6911H47.4218V33.5553H45.5576V31.6911Z" fill="white"/>
</svg>
