<svg width="43" height="42" viewBox="0 0 43 42" fill="none" xmlns="http://www.w3.org/2000/svg">
<path d="M28.3178 33.1844L24.4701 31.9018C29.2432 28.8983 27.1001 21.3166 21.3854 21.3166C15.6707 21.3166 13.5277 28.8821 18.3008 31.9018L14.4531 33.1844C12.4399 33.85 11.0762 35.7495 11.0762 37.8763V40.0356C11.0762 41.1233 11.9529 42 13.0406 42H29.7789C30.8667 42 31.7434 41.1233 31.7434 40.0356V37.8763C31.7434 35.7495 30.3796 33.85 28.3665 33.1844H28.3178ZM17.1481 27.0638C17.3267 21.4952 25.4117 21.4952 25.574 27.0638C25.3955 32.6324 17.3104 32.6324 17.1481 27.0638ZM30.1686 40.0356C30.1686 40.2791 29.9737 40.4739 29.7302 40.4739H12.9919C12.7484 40.4739 12.5536 40.2791 12.5536 40.0356V37.8763C12.5536 36.3989 13.4952 35.1001 14.8914 34.6293L19.421 33.1195C20.6711 32.6973 22.0348 32.6973 23.2849 33.1195L27.8145 34.6293C29.2107 35.1001 30.1523 36.3989 30.1523 37.8763V40.0356H30.1686Z" fill="#6C696E"/>
<path d="M39.9255 32.746L37.1006 31.8044C39.2274 30.2458 39.6982 27.2586 38.1397 25.1156C36.5811 22.9726 33.5938 22.518 31.4508 24.0765C29.324 25.6351 28.8532 28.6223 30.4118 30.7654C30.704 31.1712 31.0449 31.5122 31.4508 31.8044C31.0449 31.9181 30.8014 32.3402 30.9151 32.746C31.0287 33.1519 31.4508 33.3954 31.8567 33.2818C31.8567 33.2818 31.8729 33.2818 31.8892 33.2818C32.6522 32.9733 33.4477 32.7947 34.2595 32.746C35.3472 32.6486 38.3832 33.915 39.4547 34.2072C40.5262 34.5644 41.2405 35.5709 41.2405 36.6912V38.4283C41.2405 38.5419 41.1594 38.6231 41.0457 38.6394H33.9997C33.5776 38.6394 33.2367 38.9803 33.2367 39.4024C33.2367 39.8245 33.5776 40.1654 33.9997 40.1654H41.0457C42.0036 40.1654 42.7666 39.3862 42.7666 38.4283V36.6912C42.7666 34.9053 41.6302 33.3143 39.9255 32.746ZM34.2757 31.2037C32.4736 31.2037 31.0287 29.7263 31.0449 27.9242C31.0449 26.1384 32.4899 24.7097 34.2757 24.6935C36.0778 24.6935 37.5227 26.1709 37.5065 27.9729C37.5065 29.7588 36.0616 31.1875 34.2757 31.2037Z" fill="#6C696E"/>
<path d="M11.8392 32.7785C11.9691 32.3726 11.7581 31.9505 11.3522 31.8207C11.3522 31.8207 11.336 31.8207 11.3197 31.8207C13.4465 30.2621 13.9173 27.2586 12.3588 25.1318C10.8002 23.005 7.79672 22.5342 5.66993 24.0928C3.54314 25.6513 3.07233 28.6548 4.63089 30.7816C4.92312 31.1875 5.28029 31.5284 5.66993 31.8207L2.84504 32.7623C1.15659 33.3305 0.0201413 34.9215 0.00390625 36.7074V38.4445C0.00390625 39.4024 0.766953 40.1817 1.72482 40.1817H8.75458C9.17669 40.1817 9.5014 39.8083 9.5014 39.4024C9.5014 38.9965 9.16046 38.6718 8.75458 38.6556H1.72482C1.61117 38.6556 1.53 38.5582 1.53 38.4445V36.7074C1.53 35.5872 2.24434 34.5806 3.31585 34.2234C4.4036 33.9312 7.37461 32.6811 8.49482 32.7623C9.01434 32.7623 9.51763 32.8435 10.0047 33.0058L10.8651 33.2818C11.271 33.4117 11.6931 33.2006 11.823 32.7948L11.8392 32.7785ZM8.49482 31.2037C6.69274 31.2037 5.24782 29.7263 5.26405 27.9242C5.26405 26.1384 6.70897 24.7097 8.49482 24.6935C10.2969 24.6935 11.7418 26.1709 11.7256 27.973C11.7256 29.7588 10.2807 31.1875 8.49482 31.2037Z" fill="#6C696E"/>
<path d="M2.26073 24.1577C2.52049 24.4824 3.00754 24.5311 3.33224 24.2714C3.65694 24.0116 3.70564 23.5246 3.44588 23.1999C2.78025 22.3881 2.17955 21.5276 1.6438 20.6185C5.8162 13.7186 13.3168 9.52997 21.3856 9.59491C29.4544 9.52997 36.955 13.7186 41.1274 20.6185C40.5916 21.5276 39.9909 22.3881 39.3253 23.1999C39.0655 23.5246 39.1142 24.0116 39.4389 24.2714C39.7636 24.5311 40.2507 24.4824 40.5104 24.1577C41.3384 23.1674 42.069 22.0959 42.6859 20.9432C42.7996 20.7321 42.7996 20.4724 42.6859 20.2613C38.3025 12.6471 30.1687 7.98764 21.3856 8.05258C12.6024 7.98764 4.46869 12.6471 0.0852339 20.2613C-0.0284113 20.4724 -0.0284113 20.7321 0.0852339 20.9432C0.702165 22.0796 1.43274 23.1512 2.24449 24.1577H2.26073Z" fill="#6C696E"/>
<path d="M21.3854 16.4136C19.4696 16.4136 17.7974 17.6961 17.3266 19.5469C17.2292 19.9528 17.4727 20.3749 17.8786 20.4723C18.2845 20.5697 18.7066 20.3262 18.804 19.9203C19.1774 18.4917 20.6385 17.6474 22.051 18.0208C22.9926 18.2644 23.707 18.9949 23.9505 19.9366C24.0479 20.3424 24.47 20.586 24.8759 20.4886C25.2818 20.3912 25.5253 19.969 25.4279 19.5632C24.9571 17.7124 23.2849 16.4136 21.3691 16.4136H21.3854Z" fill="#6C696E"/>
<path d="M21.3856 5.34132C21.8077 5.34132 22.1487 5.00039 22.1487 4.57828V0.763046C22.1487 0.340936 21.8077 0 21.3856 0C20.9635 0 20.6226 0.340936 20.6226 0.763046V4.57828C20.6226 5.00039 20.9635 5.34132 21.3856 5.34132Z" fill="#6C696E"/>
<path d="M7.79689 7.33824C8.05665 7.67917 8.52747 7.74411 8.8684 7.48435C9.20934 7.22459 9.27428 6.75378 9.01452 6.41284L6.72538 3.36066C6.46562 3.01972 5.99481 2.95478 5.65387 3.21454C5.31294 3.4743 5.248 3.94512 5.50776 4.28606L7.79689 7.33824Z" fill="#6C696E"/>
<path d="M34.3571 7.63045C34.6006 7.63045 34.8279 7.51681 34.974 7.32199L37.2631 4.2698C37.5229 3.92887 37.4417 3.45805 37.117 3.19829C36.7761 2.93853 36.3053 3.0197 36.0455 3.3444L33.7564 6.39659C33.4966 6.73752 33.5778 7.20834 33.9025 7.4681C34.0324 7.56551 34.1947 7.61422 34.3571 7.61422V7.63045Z" fill="#6C696E"/>
<path d="M29.5199 23.4758C29.8608 23.4758 30.1693 23.2485 30.2505 22.9076C30.9486 20.2451 30.3966 17.4039 28.7568 15.196C28.4971 14.855 28.0263 14.7901 27.6853 15.0499C27.6691 15.0661 27.6366 15.0823 27.6204 15.0986C27.4093 15.2934 27.1333 15.407 26.8573 15.407C26.2242 15.407 25.7209 14.8875 25.7047 14.2543C25.656 13.7998 26.1592 13.4588 26.0131 13.0042C25.9644 12.7932 25.8183 12.6146 25.6235 12.5172C21.1426 10.1794 15.6065 11.9003 13.2686 16.3974C12.2134 18.4105 11.9536 20.7321 12.5218 22.9238C12.6355 23.3297 13.0413 23.5732 13.4472 23.4758C13.8531 23.3784 14.0966 22.9563 13.9992 22.5504C13.8369 21.9335 13.7557 21.2841 13.7557 20.6509C13.7882 16.4136 17.2462 13.0042 21.4998 13.0367C22.4577 13.0367 23.3993 13.2315 24.276 13.5887C23.9026 15.0174 24.7468 16.4785 26.1755 16.8682C26.7599 17.0305 27.3931 16.9818 27.9451 16.7383C28.6594 17.9235 29.0328 19.2872 29.0328 20.6672C29.2114 21.5763 28.1074 23.3784 29.5361 23.5245L29.5199 23.4758Z" fill="#6C696E"/>
</svg>
